<?xml version="1.0" encoding="UTF-8"?>
<svg id="Layer_1" data-name="Layer 1" xmlns="http://www.w3.org/2000/svg" viewBox="0 0 1000 1000">
  <defs>
    <style>
      .cls-1 {
        fill: #545454;
      }

      .cls-1, .cls-2 {
        stroke-width: 0px;
      }

      .cls-2 {
        fill: #fbd008;
      }
    </style>
  </defs>
  <path class="cls-1 dark:bg-white" d="M143.74,240.62l108.36-62.6v504.11l-88.65,88.65-19.72-11.39c-28.79-16.6-46.51-47.3-46.51-80.55v-357.65c0-33.25,17.72-63.95,46.51-80.55Z"/>
  <path class="cls-1" d="M753.15,181.09l-408.02,408.02V124.35l108.36-62.6c28.79-16.6,64.23-16.6,93.02,0l206.64,119.34Z"/>
  <path class="cls-2" d="M753.15,818.91l-206.64,119.34c-28.79,16.6-64.23,16.6-93.02,0l-206.64-119.34,253.15-253.15,253.15,253.15Z"/>
  <path class="cls-1" d="M902.76,321.17v357.65c0,33.25-17.72,63.95-46.51,80.55l-19.72,11.39-270.77-270.77,270.77-270.77,19.72,11.39c28.79,16.6,46.51,47.3,46.51,80.55Z"/>
</svg>