<svg width="437" height="425" viewBox="0 0 437 425" fill="none" xmlns="http://www.w3.org/2000/svg">
<path d="M299.75 225.5C306.94 225.5 427.92 226.3 435.53 226.06C436.07 226.06 436.37 225.24 435.82 224.97C431.03 222.59 425.59 223.07 420.61 221.39C417.68 220.39 415.88 218.49 413.85 216.29C412.164 214.371 409.986 212.95 407.55 212.18C405.325 211.511 402.962 211.439 400.7 211.97C398.24 212.55 396.11 213.97 393.77 214.84C387.96 217.04 382.31 214.95 378.16 210.65C374.74 207.11 371.37 203.76 366.72 201.85C364.819 200.991 362.762 200.534 360.677 200.506C358.591 200.478 356.523 200.882 354.6 201.69C350.16 203.69 347.12 207.74 342.95 210.17C338.01 213.06 332.1 212.38 326.64 213.25C321.18 214.12 317 218.72 312.21 221.36C310.649 222.363 308.845 222.923 306.99 222.98C305.92 222.98 304.87 222.66 303.82 222.53C302.17 222.33 300.6 222.37 299.49 223.75C299.26 224.08 299.31 225.5 299.75 225.5Z" fill="#EBEBEB"/>
<path d="M9.66 66.18C14.91 66.18 103.24 66.76 108.79 66.59C109.19 66.59 109.41 65.99 109.01 65.79C105.51 64.06 101.54 64.41 97.9 63.18C95.75 62.5 94.45 61.06 92.97 59.5C91.7381 58.1002 90.1477 57.063 88.37 56.5C86.7464 56.0076 85.0217 55.9524 83.37 56.34C81.57 56.77 80.02 57.79 78.31 58.44C74.06 60.04 69.94 58.52 66.91 55.38C64.41 52.79 61.91 50.38 58.56 48.96C57.1806 48.3329 55.6875 47.9944 54.1726 47.9651C52.6576 47.9359 51.1526 48.2166 49.75 48.79C46.51 50.26 44.29 53.21 41.24 54.99C37.64 57.1 33.32 56.6 29.34 57.24C25.36 57.88 22.34 61.24 18.8 63.16C17.6594 63.8891 16.3431 64.2968 14.99 64.34C14.2115 64.27 13.4371 64.1598 12.67 64.01C12.1137 63.8577 11.5263 63.8601 10.9712 64.017C10.4162 64.1738 9.9144 64.4791 9.52 64.9C9.28 65.15 9.32 66.18 9.66 66.18Z" fill="#EBEBEB"/>
<path d="M297.86 161.38C303.11 161.38 391.43 161.96 396.99 161.79C397.38 161.79 397.6 161.19 397.2 160.99C393.7 159.26 389.73 159.61 386.1 158.38C383.96 157.66 382.64 156.26 381.16 154.66C379.93 153.258 378.339 152.221 376.56 151.66C374.936 151.168 373.212 151.112 371.56 151.5C369.83 152.091 368.14 152.793 366.5 153.6C362.26 155.2 358.13 153.68 355.1 150.54C352.61 147.95 350.1 145.54 346.75 144.12C345.363 143.491 343.861 143.155 342.339 143.133C340.816 143.111 339.305 143.402 337.9 143.99C334.66 145.46 332.44 148.41 329.4 150.19C325.79 152.3 321.48 151.8 317.49 152.43C313.5 153.06 310.49 156.43 306.95 158.36C305.81 159.09 304.493 159.498 303.14 159.54C302.362 159.469 301.587 159.359 300.82 159.21C300.264 159.058 299.676 159.06 299.121 159.217C298.566 159.374 298.064 159.679 297.67 160.1C297.47 160.34 297.51 161.38 297.86 161.38Z" fill="#EBEBEB"/>
<path d="M75.32 170.73C80.57 170.73 168.9 171.31 174.45 171.13C174.85 171.13 175.06 170.53 174.67 170.34C171.17 168.6 167.2 168.95 163.56 167.73C161.42 167.01 160.11 165.61 158.62 164C157.392 162.601 155.805 161.563 154.03 161C152.405 160.515 150.682 160.459 149.03 160.84C147.24 161.27 145.68 162.3 143.97 162.94C139.73 164.55 135.61 163.02 132.58 159.88C130.08 157.3 127.58 154.88 124.23 153.46C122.842 152.833 121.34 152.499 119.818 152.478C118.295 152.457 116.784 152.751 115.38 153.34C112.14 154.81 109.91 157.76 106.87 159.53C103.26 161.64 98.95 161.14 94.97 161.78C90.99 162.42 87.97 165.78 84.43 167.7C83.2908 168.432 81.9736 168.84 80.62 168.88C79.84 168.88 79.07 168.65 78.3 168.56C77.743 168.406 77.1545 168.406 76.5978 168.561C76.041 168.716 75.537 169.02 75.14 169.44C74.94 169.69 74.98 170.73 75.32 170.73Z" fill="#EBEBEB"/>
<path d="M120.16 132.35C120.26 132.64 259.37 132.35 257.62 132.35C256.82 132.35 258.83 131.15 258.05 130.76C253.52 128.51 248.56 128.45 243.63 128C240.72 127.891 237.859 127.211 235.21 126C232.59 124.62 230.96 122.24 229.09 120C226.225 116.602 222.54 113.991 218.384 112.416C214.227 110.841 209.738 110.354 205.34 111C195.45 112.55 187.65 120.08 177.74 121.47C171.74 122.3 166.16 120 160.34 119.19C155.844 118.568 151.267 119.402 147.28 121.57C144.14 123.13 141.28 124.44 137.69 124.68C134.97 124.88 132.23 124.57 129.51 124.54C125.059 124.634 120.794 126.343 117.51 129.35C117.01 129.74 115.61 132.35 120.16 132.35Z" fill="#EBEBEB"/>
<path d="M415.41 385.87C414.63 385.55 414.29 386.82 415.06 387.13C416.033 387.528 416.825 388.273 417.281 389.22C417.737 390.168 417.826 391.251 417.53 392.26C417.484 392.427 417.505 392.606 417.591 392.757C417.676 392.908 417.818 393.019 417.985 393.065C418.152 393.111 418.331 393.09 418.482 393.004C418.633 392.919 418.744 392.777 418.79 392.61C419.169 391.267 419.033 389.831 418.407 388.584C417.782 387.337 416.713 386.369 415.41 385.87Z" fill="#EBEBEB"/>
<path d="M421.13 384.65C420.308 386.458 420.044 388.471 420.37 390.43C420.5 391.26 421.76 390.91 421.63 390.08C421.373 388.463 421.588 386.807 422.25 385.31C422.59 384.55 421.47 383.89 421.13 384.65Z" fill="#EBEBEB"/>
<path d="M386.44 302.68C385.66 302.36 385.32 303.63 386.09 303.94C387.063 304.338 387.855 305.083 388.311 306.03C388.767 306.978 388.856 308.061 388.56 309.07C388.514 309.237 388.535 309.416 388.621 309.567C388.706 309.718 388.848 309.829 389.015 309.875C389.182 309.921 389.361 309.9 389.512 309.814C389.663 309.729 389.774 309.587 389.82 309.42C390.199 308.077 390.063 306.641 389.437 305.394C388.812 304.147 387.743 303.179 386.44 302.68Z" fill="#EBEBEB"/>
<path d="M392.16 301.5C391.338 303.308 391.074 305.321 391.4 307.28C391.53 308.11 392.79 307.76 392.66 306.93C392.403 305.313 392.618 303.657 393.28 302.16C393.62 301.36 392.5 300.7 392.16 301.5Z" fill="#EBEBEB"/>
<path d="M281.21 413.28C280.47 412.89 279.81 414.01 280.55 414.41C281.265 414.776 281.853 415.348 282.238 416.052C282.624 416.757 282.788 417.561 282.71 418.36C282.64 419.2 283.95 419.2 284.02 418.36C284.099 417.331 283.875 416.302 283.376 415.399C282.876 414.496 282.123 413.76 281.21 413.28Z" fill="#EBEBEB"/>
<path d="M26.95 319.67C26.2 319.27 25.54 320.4 26.29 320.8C27.0049 321.166 27.5932 321.738 27.9785 322.442C28.3637 323.147 28.528 323.951 28.45 324.75C28.38 325.59 29.69 325.59 29.75 324.75C29.8288 323.723 29.6058 322.694 29.1084 321.792C28.6109 320.89 27.8608 320.152 26.95 319.67Z" fill="#EBEBEB"/>
<path d="M199.06 406.32C198.66 405.58 197.53 406.24 197.93 406.98C198.847 408.694 199.273 410.629 199.16 412.57C199.16 413.41 200.42 413.4 200.47 412.57C200.584 410.397 200.096 408.234 199.06 406.32Z" fill="#EBEBEB"/>
<path d="M202.09 407.19C201.372 408.455 201.078 409.916 201.25 411.36C201.36 412.18 202.66 412.19 202.56 411.36C202.396 410.151 202.624 408.92 203.21 407.85C203.62 407.11 202.49 406.5 202.09 407.19Z" fill="#EBEBEB"/>
<path d="M67.32 290.81C66.92 290.07 65.79 290.73 66.19 291.47C67.1168 293.181 67.5431 295.118 67.42 297.06C67.42 297.9 68.69 297.9 68.73 297.06C68.8491 294.886 68.3609 292.722 67.32 290.81Z" fill="#EBEBEB"/>
<path d="M70.35 291.68C69.6354 292.946 69.3445 294.407 69.52 295.85C69.62 296.67 70.93 296.68 70.82 295.85C70.6547 294.639 70.8863 293.408 71.48 292.34C71.88 291.6 70.75 290.94 70.35 291.68Z" fill="#EBEBEB"/>
<path d="M110.14 381.75C109.4 381.35 108.73 382.48 109.48 382.88C110.195 383.246 110.783 383.818 111.168 384.522C111.554 385.227 111.718 386.031 111.64 386.83C111.57 387.67 112.88 387.66 112.95 386.83C113.029 385.801 112.805 384.772 112.306 383.869C111.806 382.966 111.053 382.23 110.14 381.75Z" fill="#EBEBEB"/>
<path d="M114.03 379.7C113.63 378.96 112.5 379.62 112.9 380.36C113.827 382.071 114.253 384.008 114.13 385.95C114.13 386.79 115.4 386.79 115.44 385.95C115.559 383.776 115.071 381.612 114.03 379.7Z" fill="#EBEBEB"/>
<path d="M117.06 380.57C116.346 381.836 116.055 383.297 116.23 384.74C116.33 385.57 117.64 385.58 117.53 384.74C117.365 383.529 117.596 382.298 118.19 381.23C118.59 380.5 117.47 379.83 117.06 380.57Z" fill="#EBEBEB"/>
<path d="M141.42 418.17C141.346 418.127 141.264 418.098 141.179 418.087C141.094 418.075 141.007 418.08 140.924 418.102C140.841 418.124 140.763 418.162 140.694 418.214C140.626 418.266 140.568 418.331 140.525 418.405C140.482 418.479 140.453 418.561 140.442 418.646C140.43 418.731 140.435 418.818 140.457 418.901C140.479 418.984 140.517 419.062 140.569 419.131C140.621 419.199 140.686 419.257 140.76 419.3C141.613 419.794 142.312 420.516 142.776 421.385C143.241 422.254 143.454 423.236 143.39 424.22C143.39 425.06 144.65 425.06 144.7 424.22C144.762 423.008 144.488 421.802 143.909 420.734C143.331 419.667 142.47 418.78 141.42 418.17Z" fill="#EBEBEB"/>
<path d="M146.21 421.3L145.76 423.93C145.62 424.75 146.88 425.1 147.02 424.27L147.47 421.64C147.61 420.82 146.35 420.5 146.21 421.3Z" fill="#EBEBEB"/>
<path d="M24.33 387.65C23.68 387.12 22.76 388.04 23.4 388.57C24.1599 389.179 24.7619 389.963 25.1553 390.854C25.5486 391.745 25.7218 392.718 25.66 393.69C25.66 394.53 26.93 394.53 26.97 393.69C27.0345 392.547 26.8292 391.404 26.3706 390.355C25.9119 389.306 25.2129 388.379 24.33 387.65Z" fill="#EBEBEB"/>
<path d="M350.07 371.93C350.71 371.4 351.64 372.32 351 372.86C350.237 373.465 349.633 374.246 349.239 375.136C348.845 376.026 348.674 376.999 348.74 377.97C348.74 378.81 347.47 378.81 347.43 377.97C347.365 376.827 347.571 375.684 348.029 374.635C348.488 373.586 349.187 372.659 350.07 371.93Z" fill="#EBEBEB"/>
<path d="M424.97 318.76C425.61 318.23 426.54 319.15 425.89 319.69C425.132 320.298 424.53 321.08 424.137 321.97C423.744 322.859 423.57 323.83 423.63 324.8C423.68 325.64 422.37 325.64 422.33 324.8C422.264 323.657 422.468 322.514 422.927 321.464C423.386 320.415 424.086 319.488 424.97 318.76Z" fill="#EBEBEB"/>
<path d="M325.02 411.61C324.14 412.507 323.49 413.605 323.128 414.809C322.766 416.012 322.701 417.286 322.94 418.52C323.09 419.34 324.35 418.99 324.2 418.17C324.013 417.159 324.073 416.118 324.376 415.136C324.679 414.154 325.216 413.26 325.94 412.53C326.53 411.93 325.6 411 325.02 411.61Z" fill="#EBEBEB"/>
<path d="M320.25 412.32V416.71C320.27 416.87 320.347 417.017 320.468 417.123C320.589 417.23 320.744 417.289 320.905 417.289C321.066 417.289 321.221 417.23 321.342 417.123C321.463 417.017 321.54 416.87 321.56 416.71V412.32C321.54 412.16 321.463 412.013 321.342 411.907C321.221 411.8 321.066 411.741 320.905 411.741C320.744 411.741 320.589 411.8 320.468 411.907C320.347 412.013 320.27 412.16 320.25 412.32Z" fill="#EBEBEB"/>
<path d="M327.25 413.7C326.657 414.077 326.174 414.604 325.849 415.227C325.524 415.85 325.369 416.548 325.4 417.25C325.4 418.09 326.74 418.1 326.71 417.25C326.677 416.776 326.77 416.302 326.981 415.877C327.192 415.452 327.513 415.09 327.91 414.83C328.61 414.37 327.95 413.24 327.25 413.7Z" fill="#EBEBEB"/>
<path d="M15.66 277.12C15.66 277.12 91.23 225.23 138.09 225.23C194.37 225.23 249.09 248.35 269.79 255.99C324.28 276.05 429.79 277.12 429.79 277.12H15.66Z" fill="#DBDBDB"/>
<path d="M429.84 277.12C429.84 277.12 386.93 246.93 338.46 246.93C304.62 246.93 256.06 253.18 210.33 263.43C192.91 267.33 102.26 277.12 102.26 277.12H429.84Z" fill="#C7C7C7"/>
<path opacity="0.2" d="M347.24 101.13C373.313 101.13 394.45 79.9934 394.45 53.92C394.45 27.8466 373.313 6.71 347.24 6.71C321.167 6.71 300.03 27.8466 300.03 53.92C300.03 79.9934 321.167 101.13 347.24 101.13Z" fill="#FFC727"/>
<path d="M347.24 90.01C367.172 90.01 383.33 73.852 383.33 53.92C383.33 33.988 367.172 17.83 347.24 17.83C327.308 17.83 311.15 33.988 311.15 53.92C311.15 73.852 327.308 90.01 347.24 90.01Z" fill="#FFC727"/>
<path d="M435.46 343.55L217.73 404L0 343.55L217.73 304.64L435.46 343.55Z" fill="#FFC727"/>
<path opacity="0.4" d="M435.46 343.55L217.73 404L0 343.55L217.73 304.64L435.46 343.55Z" fill="white"/>
<path opacity="0.2" d="M15.62 347.89L18.11 348.58V347.89V340.32L8.07 342.11V345.8L15.62 347.89Z" fill="white"/>
<path opacity="0.2" d="M38.59 336.66V354.27L28.55 351.48V338.45L34.18 337.44L38.59 336.66Z" fill="white"/>
<path opacity="0.2" d="M59.07 333V359.96L51.76 357.92L49.03 357.17V334.79L59.07 333Z" fill="white"/>
<path opacity="0.2" d="M79.55 329.34V365.64L69.5 362.85V331.13L79.55 329.34Z" fill="white"/>
<path opacity="0.2" d="M100.03 325.67V371.33L89.98 368.53V327.41H90.33L100.03 325.67Z" fill="white"/>
<path opacity="0.2" d="M120.49 322.02V377L110.46 374.22V323.81L120.49 322.02Z" fill="white"/>
<path opacity="0.2" d="M140.97 318.36V382.69L130.94 379.91V320.15L140.97 318.36Z" fill="white"/>
<path opacity="0.2" d="M161.45 314.7V388.38L151.42 385.59V316.49L161.45 314.7Z" fill="white"/>
<path opacity="0.2" d="M181.93 311.04V394.06L171.9 391.28V312.83L181.93 311.04Z" fill="white"/>
<path opacity="0.2" d="M202.41 307.38V399.75L199.29 398.88L192.37 396.97V309.17L202.41 307.38Z" fill="white"/>
<path opacity="0.2" d="M222.89 305.56V402.57L217.73 404L212.84 402.65V305.51L217.73 304.64L222.89 305.56Z" fill="white"/>
<path opacity="0.2" d="M243.36 309.22V396.88L236.18 398.88L233.32 399.68V307.42L243.36 309.22Z" fill="white"/>
<path opacity="0.2" d="M263.84 312.88V391.21L253.8 394V311.09L263.84 312.88Z" fill="white"/>
<path opacity="0.2" d="M284.32 316.54V385.52L274.28 388.31V314.74L284.32 316.54Z" fill="white"/>
<path opacity="0.2" d="M304.8 320.19V379.84L294.75 382.62V318.41L304.8 320.19Z" fill="white"/>
<path opacity="0.2" d="M325.28 323.86V374.15L315.23 376.93V322.06L325.28 323.86Z" fill="white"/>
<path opacity="0.2" d="M345.75 327.41V368.46L335.71 371.25V325.73L345.13 327.41H345.75Z" fill="white"/>
<path opacity="0.2" d="M366.23 331.18V362.78L356.19 365.56V329.38L366.23 331.18Z" fill="white"/>
<path opacity="0.2" d="M386.7 334.83V357.09L383.71 357.92L376.67 359.87V333.05L386.7 334.83Z" fill="white"/>
<path opacity="0.2" d="M407.18 338.5V351.4L397.15 354.19V336.7L401.29 337.44L407.18 338.5Z" fill="white"/>
<path opacity="0.2" d="M427.66 342.15V345.71L419.85 347.89L417.62 348.51V340.37L427.66 342.15Z" fill="white"/>
<path opacity="0.2" d="M286.69 316.96H148.77L151.42 316.49L161.45 314.7L171.9 312.83L181.93 311.04L192.37 309.17L202.41 307.38L204.91 306.93H230.55L233.32 307.42L243.36 309.22L253.8 311.09L263.84 312.88L274.28 314.74L284.32 316.54L286.69 316.96Z" fill="white"/>
<path opacity="0.2" d="M79.55 329.34L69.5 331.13L59.07 333L49.03 334.79L38.59 336.66L34.18 337.44H38.59H49.03H59.07H69.5H79.55H89.98H100.03H110.46H120.49H130.94H140.97H151.42H161.45H171.9H181.93H192.37H202.41H212.84H222.89H233.32H243.36H253.8H263.84H274.28H284.32H294.75H304.8H315.23H325.28H335.71H345.75H356.19H366.23H376.67H386.7H397.15H401.29L397.15 336.7L386.7 334.83L376.67 333.05L366.23 331.18L356.19 329.38L345.75 327.51V327.41H345.13H335.71H325.28H315.23H304.8H294.75H284.32H274.28H263.84H253.8H243.36H233.32H222.89H212.84H202.41H192.37H181.93H171.9H161.45H151.42H140.97H130.94H120.49H110.46H100.03H90.33H89.98L79.55 329.34Z" fill="white"/>
<path opacity="0.2" d="M419.85 347.89L417.62 348.51L407.18 351.4L397.15 354.19L386.7 357.09L383.71 357.92H51.76L49.03 357.17L38.59 354.27L28.55 351.48L18.11 348.58L15.62 347.89H419.85Z" fill="white"/>
<path opacity="0.2" d="M346.13 368.36L345.75 368.46L335.71 371.25L325.28 374.15L315.23 376.93L309.94 378.4H125.52L120.49 377L110.46 374.22L100.03 371.33L89.98 368.53L89.33 368.36H346.13Z" fill="white"/>
<path opacity="0.2" d="M272.37 388.84L263.84 391.21L253.8 394L243.36 396.88L236.18 398.88H199.29L192.37 396.97L181.93 394.06L171.9 391.28L163.1 388.84H272.37Z" fill="white"/>
<path d="M162.35 264.5C161.43 265.43 150.63 265.84 146.7 265.84C142.77 265.84 131.97 265.5 131.05 264.5C130.13 263.5 143.2 191.8 146.7 191.8C150.2 191.8 163.28 263.62 162.35 264.5Z" fill="#455A64"/>
<path d="M162.57 246.25C159.9 247.25 150.02 251.25 147.88 252.47V251.12C150.26 249.72 152.65 248.327 155.05 246.94C157.698 245.544 160.271 244.012 162.76 242.35C162.88 242.26 162.81 242.02 162.65 242.09C160.043 243.31 157.521 244.703 155.1 246.26C152.67 247.69 150.27 249.15 147.88 250.63C147.88 247.19 147.88 243.75 147.88 240.32C151.778 238.702 155.546 236.786 159.15 234.59C159.27 234.52 159.15 234.29 159.04 234.35C155.188 235.902 151.457 237.74 147.88 239.85C147.88 238.06 147.88 236.28 147.88 234.49C147.78 225.28 147.76 216.06 147.53 206.85C149.87 205.66 152.29 204.62 154.63 203.43C154.78 203.35 154.63 203.09 154.51 203.15C152.13 204.08 149.84 205.15 147.51 206.15C147.38 201.4 147.2 196.65 146.91 191.91C146.91 191.878 146.897 191.848 146.875 191.825C146.852 191.803 146.822 191.79 146.79 191.79C146.758 191.79 146.728 191.803 146.705 191.825C146.683 191.848 146.67 191.878 146.67 191.91C146.34 200.73 146.37 209.56 146.48 218.39C144.05 216.45 141.48 214.74 138.99 212.86C138.9 212.79 138.8 212.95 138.9 213.02C141.48 215.02 143.9 217.16 146.49 219.12C146.49 219.62 146.49 220.12 146.49 220.62C143.85 219.42 141.18 218.3 138.49 217.16C138.28 217.07 138.1 217.37 138.31 217.47C141.02 218.77 143.72 220.09 146.47 221.32C146.53 225.693 146.593 230.067 146.66 234.44C146.76 242.07 146.93 249.71 147.09 257.35C142.123 254.83 137.123 252.383 132.09 250.01C131.9 249.92 131.73 250.19 131.92 250.3C136.846 253.115 141.92 255.662 147.12 257.93C147.26 264.28 147.39 270.62 147.47 276.93C147.47 277.01 147.502 277.086 147.558 277.142C147.614 277.198 147.69 277.23 147.77 277.23C147.85 277.23 147.926 277.198 147.982 277.142C148.038 277.086 148.07 277.01 148.07 276.93C147.98 268.84 147.97 260.74 147.94 252.65C150.57 252 160.46 247.76 162.82 246.6C163 246.57 162.83 246.15 162.57 246.25Z" fill="#37474F"/>
<path d="M343.91 264.5C342.99 265.43 332.19 265.84 328.26 265.84C324.33 265.84 313.54 265.5 312.61 264.5C311.68 263.5 324.76 191.8 328.26 191.8C331.76 191.8 344.84 263.62 343.91 264.5Z" fill="#455A64"/>
<path d="M344.13 246.25C341.46 247.25 331.58 251.25 329.45 252.47C329.45 252.02 329.45 251.57 329.45 251.12C331.83 249.72 334.23 248.33 336.62 246.94C339.268 245.544 341.841 244.012 344.33 242.35C344.45 242.26 344.38 242.02 344.22 242.09C341.616 243.31 339.097 244.703 336.68 246.26C334.247 247.687 331.837 249.143 329.45 250.63C329.45 247.19 329.45 243.75 329.4 240.32C333.299 238.704 337.067 236.788 340.67 234.59C340.79 234.52 340.67 234.29 340.57 234.35C336.714 235.9 332.98 237.738 329.4 239.85C329.4 238.06 329.4 236.28 329.4 234.49C329.3 225.28 329.29 216.06 329.05 206.85C331.39 205.66 333.81 204.62 336.15 203.43C336.3 203.35 336.15 203.09 336.03 203.15C333.65 204.08 331.37 205.15 329.03 206.15C328.91 201.403 328.713 196.657 328.44 191.91C328.432 191.883 328.416 191.859 328.393 191.842C328.371 191.825 328.343 191.816 328.315 191.816C328.287 191.816 328.259 191.825 328.237 191.842C328.214 191.859 328.198 191.883 328.19 191.91C327.86 200.73 327.89 209.56 328 218.39C325.57 216.45 323 214.74 320.51 212.86C320.42 212.79 320.32 212.95 320.42 213.02C323 215.02 325.42 217.16 328.01 219.12C328.01 219.62 328.01 220.12 328.01 220.62C325.37 219.42 322.7 218.3 320.01 217.16C319.81 217.07 319.62 217.37 319.83 217.47C322.54 218.77 325.24 220.09 327.99 221.32C328.05 225.693 328.113 230.067 328.18 234.44C328.28 242.07 328.45 249.71 328.61 257.35C323.637 254.83 318.637 252.383 313.61 250.01C313.573 250 313.534 250.002 313.498 250.017C313.463 250.031 313.433 250.058 313.415 250.091C313.396 250.125 313.39 250.164 313.396 250.202C313.402 250.24 313.421 250.274 313.45 250.3C318.371 253.117 323.442 255.664 328.64 257.93C328.78 264.28 328.91 270.62 328.99 276.93C328.99 277.01 329.022 277.086 329.078 277.142C329.134 277.198 329.21 277.23 329.29 277.23C329.37 277.23 329.446 277.198 329.502 277.142C329.558 277.086 329.59 277.01 329.59 276.93C329.5 268.84 329.49 260.74 329.47 252.65C332.09 252 341.99 247.76 344.34 246.6C344.56 246.57 344.39 246.15 344.13 246.25Z" fill="#37474F"/>
<path d="M43.9 266.35C43.1 267.15 33.84 267.5 30.47 267.5C27.1 267.5 17.83 267.15 17.03 266.35C16.23 265.55 27.46 203.96 30.47 203.96C33.48 203.96 44.75 265.56 43.9 266.35Z" fill="#455A64"/>
<path d="M44.09 250.66C41.8 251.53 33.31 254.98 31.48 255.99V254.83L37.63 251.24C39.9051 250.049 42.1149 248.737 44.25 247.31C44.35 247.24 44.25 247.03 44.16 247.09C41.9204 248.133 39.7552 249.329 37.68 250.67C35.59 251.89 33.53 253.15 31.48 254.42C31.48 251.47 31.48 248.51 31.48 245.56C34.826 244.177 38.0591 242.535 41.15 240.65C41.25 240.59 41.15 240.39 41.06 240.44C37.7496 241.768 34.5468 243.349 31.48 245.17C31.48 243.63 31.48 242.1 31.48 240.56C31.4 232.66 31.38 224.75 31.18 216.84C33.18 215.84 35.26 214.93 37.27 213.91C37.41 213.84 37.27 213.61 37.17 213.67C35.17 214.46 33.17 215.41 31.17 216.29C31.06 212.21 30.9 208.13 30.65 204.06C30.643 204.038 30.6291 204.018 30.6102 204.004C30.5913 203.99 30.5684 203.983 30.545 203.983C30.5216 203.983 30.4987 203.99 30.4798 204.004C30.4609 204.018 30.447 204.038 30.44 204.06C30.16 211.63 30.18 219.21 30.28 226.79C28.2 225.13 25.97 223.66 23.85 222.04C23.77 221.98 23.69 222.12 23.77 222.18C25.99 223.87 28.06 225.74 30.29 227.42C30.29 227.85 30.29 228.27 30.29 228.7C28.03 227.7 25.74 226.7 23.46 225.7C23.28 225.62 23.12 225.88 23.3 225.97C25.63 227.08 27.95 228.22 30.3 229.27C30.36 233.03 30.4167 236.783 30.47 240.53C30.55 247.08 30.7 253.64 30.84 260.19C26.5667 258.03 22.27 255.933 17.95 253.9C17.79 253.82 17.64 254.05 17.81 254.14C22.0208 256.561 26.3606 258.751 30.81 260.7C30.92 266.14 31.04 271.58 31.11 277.03C31.1217 277.089 31.1536 277.142 31.2001 277.18C31.2466 277.218 31.3049 277.239 31.365 277.239C31.4252 277.239 31.4834 277.218 31.5299 277.18C31.5764 277.142 31.6083 277.089 31.62 277.03C31.54 270.09 31.53 263.14 31.51 256.2C35.855 254.696 40.1176 252.963 44.28 251.01C44.45 250.93 44.31 250.57 44.09 250.66Z" fill="#37474F"/>
<path d="M299.19 268.08C299.86 268.75 307.66 269.08 310.5 269.08C313.34 269.08 321.14 268.78 321.81 268.08C322.48 267.38 313.03 215.5 310.5 215.5C307.97 215.5 298.52 267.41 299.19 268.08Z" fill="#37474F"/>
<path d="M299.03 254.86C300.96 255.6 308.1 258.51 309.64 259.36C309.64 259.03 309.64 258.71 309.64 258.36L304.46 255.36C302.543 254.356 300.68 253.251 298.88 252.05C298.8 251.98 298.88 251.81 298.96 251.86C300.846 252.735 302.67 253.738 304.42 254.86C306.17 255.86 307.91 256.95 309.64 258.02C309.64 255.54 309.64 253.02 309.64 250.56C306.824 249.397 304.102 248.016 301.5 246.43C301.41 246.37 301.5 246.21 301.57 246.25C304.357 247.379 307.054 248.716 309.64 250.25V246.37C309.71 239.72 309.73 233.05 309.9 226.37C308.2 225.51 306.46 224.76 304.76 223.9C304.65 223.84 304.76 223.65 304.85 223.7C306.57 224.37 308.22 225.16 309.91 225.9C310 222.47 310.13 219.04 310.34 215.61C310.34 215.586 310.349 215.563 310.366 215.546C310.383 215.529 310.406 215.52 310.43 215.52C310.454 215.52 310.477 215.529 310.494 215.546C310.511 215.563 310.52 215.586 310.52 215.61C310.75 221.98 310.74 228.36 310.66 234.75C312.41 233.35 314.28 232.11 316.07 230.75C316.13 230.75 316.2 230.81 316.13 230.86C314.27 232.28 312.52 233.86 310.65 235.28C310.65 235.64 310.65 236 310.65 236.36C312.56 235.49 314.49 234.68 316.41 233.85C316.56 233.79 316.69 234.01 316.54 234.08C314.54 235.02 312.63 235.98 310.65 236.86C310.603 240.02 310.557 243.18 310.51 246.34C310.44 251.86 310.31 257.34 310.2 262.9C313.787 261.08 317.403 259.313 321.05 257.6C321.078 257.584 321.111 257.58 321.142 257.588C321.173 257.597 321.199 257.617 321.215 257.645C321.231 257.673 321.235 257.706 321.227 257.737C321.218 257.768 321.198 257.794 321.17 257.81C317.607 259.846 313.934 261.685 310.17 263.32C310.07 267.913 309.987 272.5 309.92 277.08C309.92 277.138 309.897 277.194 309.856 277.236C309.814 277.277 309.758 277.3 309.7 277.3C309.642 277.3 309.586 277.277 309.544 277.236C309.503 277.194 309.48 277.138 309.48 277.08C309.55 271.23 309.56 265.38 309.57 259.53C305.913 258.271 302.327 256.812 298.83 255.16C298.75 255.1 298.84 254.79 299.03 254.86Z" fill="#455A64"/>
<path d="M40.41 268.08C41.08 268.75 48.89 269.08 51.73 269.08C54.57 269.08 62.37 268.78 63.04 268.08C63.71 267.38 54.26 215.5 51.75 215.5C49.24 215.5 39.75 267.41 40.41 268.08Z" fill="#37474F"/>
<path d="M40.26 254.86C42.19 255.6 49.33 258.51 50.87 259.36C50.87 259.03 50.87 258.71 50.87 258.36L45.69 255.36C43.7727 254.356 41.9101 253.251 40.11 252.05C40.03 251.98 40.11 251.81 40.19 251.86C42.0735 252.733 43.8945 253.736 45.64 254.86C47.4 255.86 49.14 256.95 50.87 258.02C50.87 255.54 50.87 253.053 50.87 250.56C48.0598 249.401 45.3448 248.024 42.75 246.44C42.66 246.38 42.75 246.22 42.82 246.26C45.6067 247.389 48.3043 248.726 50.89 250.26C50.89 248.97 50.89 247.68 50.89 246.38C50.96 239.73 50.97 233.06 51.14 226.38C49.45 225.52 47.7 224.77 46.01 223.91C45.9 223.85 46.01 223.66 46.1 223.71C47.82 224.38 49.47 225.17 51.16 225.91C51.25 222.48 51.38 219.05 51.59 215.62C51.5853 215.606 51.5839 215.592 51.5859 215.578C51.5879 215.564 51.5933 215.55 51.6016 215.538C51.61 215.527 51.621 215.517 51.6337 215.51C51.6465 215.504 51.6606 215.5 51.675 215.5C51.6894 215.5 51.7035 215.504 51.7163 215.51C51.729 215.517 51.74 215.527 51.7484 215.538C51.7567 215.55 51.7621 215.564 51.7641 215.578C51.7661 215.592 51.7647 215.606 51.76 215.62C52 221.99 51.98 228.37 51.9 234.76C53.66 233.36 55.53 232.12 57.31 230.76C57.38 230.76 57.45 230.82 57.38 230.87C55.51 232.29 53.77 233.87 51.9 235.29C51.9 235.65 51.9 236.01 51.9 236.37C53.8 235.5 55.73 234.69 57.66 233.86C57.81 233.8 57.94 234.02 57.79 234.09C55.79 235.03 53.88 235.99 51.89 236.87C51.85 240.03 51.8033 243.19 51.75 246.35C51.68 251.87 51.56 257.35 51.44 262.91C55.03 261.09 58.66 259.32 62.3 257.61C62.3279 257.594 62.3609 257.59 62.3918 257.598C62.4228 257.607 62.4491 257.627 62.465 257.655C62.4809 257.683 62.4851 257.716 62.4767 257.747C62.4682 257.778 62.4478 257.804 62.42 257.82C58.8565 259.856 55.1844 261.695 51.42 263.33C51.32 267.92 51.22 272.5 51.16 277.09C51.1494 277.139 51.1222 277.183 51.0831 277.215C51.044 277.246 50.9952 277.263 50.945 277.263C50.8948 277.263 50.846 277.246 50.8069 277.215C50.7678 277.183 50.7407 277.139 50.73 277.09C50.79 271.24 50.8 265.39 50.82 259.54C47.1596 258.281 43.5709 256.822 40.07 255.17C39.95 255.1 40.07 254.79 40.26 254.86Z" fill="#455A64"/>
<path d="M219.51 265.5C218.65 266.35 208.69 266.73 205.06 266.73C201.43 266.73 191.47 266.35 190.62 265.5C189.77 264.65 201.83 198.4 205.06 198.4C208.29 198.4 220.36 264.67 219.51 265.5Z" fill="#37474F"/>
<path d="M219.75 248.65C217.29 249.59 208.17 253.3 206.2 254.38C206.2 253.97 206.2 253.55 206.2 253.14C208.4 251.84 210.61 250.56 212.82 249.28C215.264 247.993 217.64 246.581 219.94 245.05C220.04 244.97 219.94 244.75 219.83 244.81C217.412 245.934 215.074 247.22 212.83 248.66C210.59 249.97 208.37 251.33 206.16 252.66C206.16 249.49 206.16 246.31 206.16 243.14C209.752 241.646 213.225 239.881 216.55 237.86C216.67 237.79 216.55 237.58 216.46 237.63C212.905 239.064 209.462 240.762 206.16 242.71C206.16 241.06 206.16 239.41 206.16 237.76C206.07 229.26 206.05 220.76 205.84 212.25C208 211.16 210.23 210.2 212.39 209.1C212.53 209.03 212.39 208.78 212.28 208.84C210.09 209.7 207.97 210.71 205.82 211.66C205.7 207.27 205.54 202.89 205.27 198.51C205.263 198.485 205.247 198.464 205.227 198.448C205.206 198.433 205.181 198.424 205.155 198.424C205.129 198.424 205.104 198.433 205.083 198.448C205.063 198.464 205.047 198.485 205.04 198.51C204.74 206.65 204.76 214.8 204.87 222.95C202.63 221.16 200.24 219.58 197.96 217.85C197.87 217.78 197.78 217.93 197.87 218C200.25 219.81 202.48 221.82 204.87 223.63C204.87 224.09 204.87 224.55 204.87 225.01C202.44 223.9 199.98 222.87 197.52 221.81C197.33 221.73 197.16 222.01 197.35 222.1C199.86 223.3 202.35 224.52 204.88 225.65C204.94 229.65 205.01 233.73 205.06 237.76C205.15 244.76 205.31 251.86 205.46 258.9C200.873 256.58 196.253 254.323 191.6 252.13C191.42 252.05 191.27 252.3 191.44 252.4C195.978 254.997 200.651 257.35 205.44 259.45C205.56 265.3 205.68 271.16 205.76 277.01C205.772 277.074 205.806 277.132 205.857 277.173C205.907 277.215 205.97 277.237 206.035 277.237C206.1 277.237 206.163 277.215 206.213 277.173C206.264 277.132 206.298 277.074 206.31 277.01C206.23 269.54 206.22 262.07 206.2 254.61C208.62 254.01 217.75 250.1 219.92 249.03C220.1 248.94 219.95 248.56 219.75 248.65Z" fill="#455A64"/>
<path d="M428.03 265.5C427.17 266.35 417.21 266.73 413.58 266.73C409.95 266.73 399.99 266.35 399.14 265.5C398.29 264.65 410.35 198.4 413.58 198.4C416.81 198.4 428.88 264.67 428.03 265.5Z" fill="#37474F"/>
<path d="M428.23 248.65C425.76 249.59 416.64 253.3 414.67 254.38V253.14C416.87 251.84 419.08 250.56 421.28 249.28C423.725 247.995 426.102 246.583 428.4 245.05C428.51 244.97 428.45 244.75 428.3 244.81C425.882 245.934 423.544 247.22 421.3 248.66C419.05 249.97 416.84 251.33 414.63 252.66C414.63 249.49 414.63 246.31 414.63 243.14C418.222 241.646 421.695 239.881 425.02 237.86C425.13 237.79 425.02 237.58 424.93 237.63C421.372 239.064 417.925 240.762 414.62 242.71C414.62 241.06 414.62 239.41 414.62 237.76C414.53 229.26 414.51 220.76 414.29 212.25C416.46 211.16 418.68 210.2 420.85 209.1C420.99 209.03 420.85 208.78 420.74 208.84C418.54 209.7 416.43 210.71 414.28 211.66C414.16 207.27 413.99 202.89 413.72 198.51C413.72 198.481 413.708 198.453 413.688 198.432C413.667 198.412 413.639 198.4 413.61 198.4C413.581 198.4 413.553 198.412 413.532 198.432C413.512 198.453 413.5 198.481 413.5 198.51C413.2 206.65 413.22 214.8 413.32 222.95C411.08 221.16 408.69 219.58 406.41 217.85C406.33 217.78 406.24 217.93 406.33 218C408.71 219.81 410.94 221.82 413.33 223.63C413.33 224.09 413.33 224.55 413.33 225.01C410.9 223.9 408.43 222.87 405.98 221.81C405.79 221.73 405.62 222.01 405.81 222.1C408.31 223.3 410.81 224.52 413.34 225.65L413.52 237.76C413.61 244.76 413.76 251.86 413.91 258.9C409.33 256.58 404.7 254.32 400.06 252.13C399.88 252.05 399.72 252.3 399.9 252.4C404.437 254.999 409.11 257.353 413.9 259.45C414.02 265.3 414.14 271.16 414.22 277.01C414.232 277.074 414.266 277.132 414.317 277.173C414.367 277.215 414.43 277.237 414.495 277.237C414.56 277.237 414.623 277.215 414.673 277.173C414.724 277.132 414.758 277.074 414.77 277.01C414.69 269.54 414.67 262.07 414.65 254.61C417.07 254.01 426.21 250.1 428.38 249.03C428.62 248.94 428.46 248.56 428.23 248.65Z" fill="#455A64"/>
<path d="M172.97 269.07C173.57 269.67 180.54 269.94 183.07 269.94C185.6 269.94 192.57 269.67 193.17 269.07C193.77 268.47 185.33 222.18 183.07 222.18C180.81 222.18 172.38 268.5 172.97 269.07Z" fill="#455A64"/>
<path d="M172.83 257.28C174.56 257.93 180.93 260.53 182.31 261.28V260.41C180.77 259.5 179.23 258.61 177.69 257.71C175.97 256.802 174.3 255.801 172.69 254.71C172.62 254.66 172.69 254.5 172.76 254.54C174.441 255.328 176.068 256.227 177.63 257.23C179.2 258.15 180.75 259.1 182.29 260.05V253.4C179.777 252.355 177.347 251.122 175.02 249.71C174.95 249.66 175.02 249.51 175.09 249.55C177.576 250.551 179.982 251.738 182.29 253.1C182.29 251.95 182.29 250.79 182.29 249.64C182.35 243.7 182.36 237.75 182.51 231.81C181 231.05 179.44 230.38 177.93 229.61C177.84 229.56 177.93 229.39 178.01 229.43C179.54 230.03 181.01 230.74 182.52 231.43C182.61 228.36 182.72 225.3 182.91 222.24C182.91 222.219 182.918 222.198 182.933 222.183C182.948 222.168 182.969 222.16 182.99 222.16C183.011 222.16 183.032 222.168 183.047 222.183C183.062 222.198 183.07 222.219 183.07 222.24C183.28 227.93 183.26 233.62 183.19 239.32C184.76 238.07 186.43 236.96 188.02 235.75C188.08 235.75 188.14 235.81 188.08 235.86C186.41 237.12 184.86 238.53 183.19 239.79C183.19 240.11 183.19 240.44 183.19 240.79C184.89 240.01 186.61 239.29 188.33 238.55C188.46 238.5 188.58 238.69 188.45 238.75C186.7 239.59 184.96 240.45 183.19 241.24C183.19 244.06 183.1 246.88 183.06 249.7C183 254.63 182.89 259.55 182.78 264.47C185.993 262.85 189.223 261.273 192.47 259.74C192.59 259.69 192.7 259.86 192.58 259.93C189.405 261.747 186.134 263.389 182.78 264.85C182.69 268.95 182.6 273.04 182.55 277.13C182.55 277.18 182.53 277.229 182.494 277.264C182.459 277.3 182.41 277.32 182.36 277.32C182.31 277.32 182.261 277.3 182.226 277.264C182.19 277.229 182.17 277.18 182.17 277.13C182.22 271.91 182.23 266.69 182.25 261.47C178.981 260.347 175.776 259.045 172.65 257.57C172.56 257.5 172.67 257.21 172.83 257.28Z" fill="#37474F"/>
<path d="M371.91 269.07C372.51 269.67 379.47 269.94 382 269.94C384.53 269.94 391.5 269.67 392.1 269.07C392.7 268.47 384.26 222.18 382 222.18C379.74 222.18 371.31 268.5 371.91 269.07Z" fill="#455A64"/>
<path d="M371.75 257.28C373.47 257.93 379.84 260.53 381.22 261.28V260.41C379.69 259.5 378.14 258.61 376.6 257.71C374.879 256.803 373.21 255.801 371.6 254.71C371.52 254.66 371.6 254.5 371.67 254.54C373.349 255.326 374.973 256.225 376.53 257.23C378.1 258.15 379.65 259.1 381.2 260.05C381.2 257.837 381.2 255.62 381.2 253.4C378.69 252.355 376.263 251.122 373.94 249.71C373.86 249.66 373.94 249.51 374 249.55C376.49 250.549 378.9 251.736 381.21 253.1C381.21 251.95 381.21 250.79 381.21 249.64C381.27 243.7 381.29 237.75 381.44 231.81C379.92 231.05 378.37 230.38 376.86 229.61C376.76 229.56 376.86 229.39 376.93 229.43C378.47 230.03 379.93 230.74 381.45 231.43C381.53 228.36 381.65 225.3 381.83 222.24C381.83 222.14 381.99 222.14 381.99 222.24C382.2 227.93 382.19 233.62 382.12 239.32C383.68 238.07 385.35 236.96 386.94 235.75C386.955 235.742 386.972 235.74 386.988 235.745C387.004 235.75 387.017 235.76 387.025 235.775C387.033 235.79 387.035 235.807 387.03 235.823C387.025 235.839 387.015 235.852 387 235.86C385.34 237.12 383.78 238.53 382.11 239.79C382.11 240.11 382.11 240.44 382.11 240.79C383.8 240.01 385.53 239.29 387.24 238.55C387.38 238.5 387.5 238.69 387.36 238.75C385.61 239.59 383.87 240.45 382.1 241.24C382.1 244.06 382.01 246.88 381.98 249.7C381.91 254.63 381.8 259.55 381.7 264.47C384.9 262.85 388.127 261.273 391.38 259.74C391.51 259.69 391.61 259.86 391.49 259.93C388.316 261.749 385.044 263.391 381.69 264.85C381.603 268.95 381.53 273.043 381.47 277.13C381.46 277.174 381.435 277.214 381.4 277.242C381.364 277.27 381.32 277.286 381.275 277.286C381.23 277.286 381.186 277.27 381.15 277.242C381.115 277.214 381.09 277.174 381.08 277.13C381.14 271.91 381.15 266.69 381.16 261.47C377.894 260.348 374.692 259.046 371.57 257.57C371.49 257.5 371.6 257.21 371.75 257.28Z" fill="#37474F"/>
<path d="M10.03 277.2L63.21 276.96L116.39 276.87L222.75 276.7L329.11 276.87L382.29 276.96L435.46 277.2L382.29 277.45L329.11 277.54L222.75 277.7L116.39 277.53L63.21 277.45L10.03 277.2Z" fill="#263238"/>
<path d="M414.17 345.55C411.33 346.64 328.73 348.14 325.49 346.3C325.14 346.09 325.24 342.44 324.02 333.01C323.96 332.56 322.08 330.81 319.14 328.35C308.09 319.09 282.14 299.57 282.14 299.57L323.36 263.75L363.31 303.02L373.7 313.23C373.7 313.23 407.44 331.5 410.75 333.86C414.06 336.22 417.02 344.5 414.17 345.55Z" fill="#D3766A"/>
<path d="M414.17 345.55C411.33 346.65 328.72 348.14 325.49 346.3C325.14 346.09 325.24 342.45 324.02 333.01C324.02 332.56 322.08 330.82 319.13 328.34C315.29 325.12 313.47 323.65 307.75 319.2L360.16 299.93L363.3 303.02L373.69 313.23C373.69 313.23 407.44 331.5 410.75 333.86C414.06 336.22 417.02 344.5 414.17 345.55Z" fill="#EBEBEB"/>
<path d="M419.87 346.69C417 347.69 328.98 348.69 325.82 346.69C325.07 346.23 324.39 341.12 323.82 334.12C323.75 333.24 314.82 326.12 313.62 324.79L367.55 306.63L374.36 313.04C374.36 313.04 414.05 331.5 417.3 334.04C420.55 336.58 422.75 345.69 419.87 346.69Z" fill="#FFC727"/>
<path d="M418.64 343.4C404.82 343.23 343.48 343.81 329.8 344.69C329.69 344.69 329.69 344.77 329.8 344.77C343.5 345.25 404.8 344.21 418.65 343.63C418.94 343.62 418.94 343.41 418.64 343.4Z" fill="#263238"/>
<path d="M378.75 313.63C373.3 312.68 366.66 313.63 362.54 317.51C362.39 317.67 362.6 317.89 362.78 317.83C367.972 316.09 373.336 314.913 378.78 314.32C378.861 314.303 378.934 314.258 378.985 314.192C379.035 314.127 379.061 314.045 379.058 313.962C379.054 313.879 379.021 313.8 378.965 313.74C378.908 313.679 378.832 313.64 378.75 313.63Z" fill="#263238"/>
<path d="M382.75 315.95C377.3 315 370.66 315.95 366.55 319.83C366.39 319.99 366.61 320.21 366.78 320.15C371.972 318.41 377.336 317.233 382.78 316.64C382.861 316.623 382.934 316.578 382.985 316.512C383.035 316.447 383.061 316.365 383.058 316.282C383.054 316.199 383.021 316.121 382.965 316.06C382.908 315.999 382.832 315.96 382.75 315.95Z" fill="#263238"/>
<path d="M386.69 318.27C381.24 317.32 374.59 318.27 370.48 322.15C370.32 322.31 370.54 322.53 370.72 322.47C375.911 320.727 381.276 319.551 386.72 318.96C386.801 318.943 386.874 318.898 386.924 318.832C386.975 318.767 387.001 318.685 386.998 318.602C386.994 318.519 386.961 318.441 386.905 318.38C386.848 318.319 386.772 318.28 386.69 318.27Z" fill="#263238"/>
<path d="M390.64 320.59C385.19 319.64 378.55 320.59 374.44 324.47C374.28 324.63 374.5 324.85 374.67 324.79C379.862 323.05 385.226 321.873 390.67 321.28C390.751 321.263 390.824 321.218 390.875 321.152C390.925 321.087 390.951 321.005 390.948 320.922C390.944 320.839 390.911 320.76 390.855 320.7C390.798 320.639 390.722 320.6 390.64 320.59Z" fill="#263238"/>
<path d="M388.68 300.93C386.51 298.01 382.54 299.38 380.3 301.32C376.498 304.71 373.656 309.042 372.06 313.88C372.052 313.901 372.049 313.924 372.052 313.946C372.054 313.969 372.062 313.99 372.075 314.009C372.088 314.028 372.105 314.043 372.125 314.054C372.145 314.064 372.167 314.07 372.19 314.07C372.19 314.48 372.59 314.92 373.05 314.74C377.53 313.02 382.52 311.74 386.33 308.74C388.56 306.93 390.75 303.69 388.68 300.93ZM379.3 310.75C377.12 311.65 374.91 312.43 372.77 313.41C374.313 310.917 375.982 308.504 377.77 306.18C378.645 305.067 379.593 304.015 380.61 303.03C382.21 301.54 388.61 298.33 387.7 304.31C387.18 307.61 381.9 309.68 379.3 310.75Z" fill="#263238"/>
<path d="M358.22 312.62C362.73 314.48 367.88 314.32 372.65 314.72C372.757 314.723 372.863 314.7 372.959 314.652C373.055 314.605 373.139 314.535 373.202 314.448C373.265 314.362 373.306 314.261 373.321 314.155C373.336 314.049 373.326 313.941 373.29 313.84C373.312 313.833 373.332 313.822 373.348 313.806C373.364 313.79 373.376 313.77 373.383 313.748C373.39 313.727 373.391 313.704 373.387 313.681C373.383 313.659 373.374 313.638 373.36 313.62C370.49 309.414 366.561 306.041 361.97 303.84C359.27 302.61 355.08 302.39 353.81 305.84C352.6 309.02 355.59 311.5 358.22 312.62ZM355.72 308.77C353.2 303.27 360.22 304.58 362.17 305.57C363.42 306.238 364.626 306.986 365.78 307.81C368.133 309.547 370.396 311.403 372.56 313.37C370.23 313.03 367.89 312.89 365.56 312.63C362.75 312.32 357.11 311.8 355.75 308.77H355.72Z" fill="#263238"/>
<path d="M363.87 300.83L312.87 327.23C312.87 327.23 259.79 279.18 254.93 278.83C250.07 278.48 178.69 326.93 142.75 327.08C105.52 327.23 103.63 288.22 103.63 288.22L157.95 275.74C197.11 256.44 237.9 221.74 264.57 225.02C293.53 228.5 363.87 300.83 363.87 300.83Z" fill="#263238"/>
<path d="M351.42 294.1C342.82 298.36 345.23 297.02 336.68 301.36C332.49 303.49 311.42 314.12 307.84 316.75C307.76 316.81 307.84 316.95 307.93 316.92C312.14 315.51 332.98 304.42 337.12 302.22C345.6 297.72 343.12 298.93 351.54 294.34C351.556 294.332 351.57 294.321 351.581 294.308C351.593 294.295 351.602 294.279 351.607 294.262C351.613 294.246 351.615 294.228 351.614 294.21C351.613 294.193 351.608 294.176 351.6 294.16C351.592 294.144 351.581 294.13 351.568 294.119C351.555 294.107 351.539 294.098 351.522 294.093C351.506 294.087 351.488 294.085 351.47 294.086C351.453 294.087 351.436 294.092 351.42 294.1Z" fill="#37474F"/>
<path d="M303.89 315.06C293.89 306.27 261.29 277.68 259.96 276.62C258.934 275.636 257.792 274.779 256.56 274.07C256.052 273.87 255.505 273.789 254.961 273.832C254.417 273.876 253.89 274.042 253.42 274.32C251.91 275.03 250.42 275.8 248.94 276.53L240.11 280.84C228.69 286.41 217.34 292.13 205.83 297.52C194.77 302.7 186.83 307.58 175.32 311.52C163.837 315.577 151.958 318.409 139.88 319.97C138.39 320.15 136.88 320.31 135.4 320.45C135.29 320.45 135.29 320.63 135.4 320.62C147.255 319.919 158.976 317.739 170.29 314.13C181.74 310.61 189.5 306.04 200.37 301.04C211.64 295.86 222.75 290.31 233.85 284.79C239.71 281.88 245.57 278.94 251.44 276.06C252.78 275.4 254.68 273.99 256.2 274.69C256.839 275.043 257.431 275.477 257.96 275.98L259.96 277.61C262.48 279.71 302.49 314.17 303.8 315.16C303.85 315.28 303.99 315.14 303.89 315.06Z" fill="#37474F"/>
<path d="M103.51 288.22C103.51 288.22 97.41 323.45 115.03 337.29C132.65 351.13 261.75 349.5 281.28 343.13C300.81 336.76 301.48 305.2 280.07 297.88C259.71 290.88 173.07 287.53 170.95 286.68C170.42 286.47 178.63 281.54 178.6 281.24L158.89 275.24L103.51 288.22Z" fill="#263238"/>
<path d="M130.25 287.33C130.25 287.18 129.99 287.23 129.99 287.33C129.988 291.424 128.543 295.386 125.91 298.52C122.91 301.98 118.49 303.92 114.49 305.95C114.1 306.14 114.39 306.75 114.79 306.63C117.253 305.871 119.627 304.849 121.87 303.58C123.927 302.481 125.737 300.974 127.19 299.15C128.488 297.497 129.43 295.594 129.956 293.56C130.483 291.526 130.583 289.405 130.25 287.33Z" fill="#37474F"/>
<path d="M169.53 282.96C168.64 281.82 167.67 280.74 166.73 279.63C164.53 277 162.31 274.36 160 271.83C159.78 271.59 159.35 271.93 159.55 272.19C161.11 274.19 162.76 276.19 164.38 278.19C165.21 279.19 166.04 280.19 166.88 281.19C167.759 282.109 168.543 283.114 169.22 284.19C169.83 285.32 169.03 286.29 167.86 286.41C166.827 286.447 165.819 286.089 165.04 285.41C163.294 283.863 161.696 282.156 160.27 280.31C159.34 279.31 158.41 278.22 157.47 277.19C156.53 276.16 155.39 275.05 154.39 273.95C154.33 273.88 154.2 273.95 154.26 274.06C155.14 275.25 155.94 276.51 156.82 277.71C157.7 278.91 158.58 280.1 159.49 281.28C160.4 282.46 161.23 283.49 162.14 284.56C162.896 285.505 163.805 286.316 164.83 286.96C166.5 287.96 169.41 288.16 170.3 285.96C170.45 285.437 170.458 284.883 170.323 284.355C170.187 283.828 169.914 283.346 169.53 282.96Z" fill="#37474F"/>
<path d="M278.6 343.25C271.86 343.37 265.12 343.77 258.38 343.91C251.64 344.05 245 344.09 238.31 344.03C224.877 343.903 211.453 343.38 198.04 342.46C184.5 341.52 169.89 340.18 156.44 338.31C150 337.42 143.44 336.68 137.11 335.31C131.389 334.214 126.101 331.504 121.87 327.5C113.16 319.05 109.77 306.62 108.38 294.75C108.19 293.16 108.04 291.56 107.91 289.97C107.91 289.86 107.73 289.86 107.74 289.97C108.53 302.14 110.42 314.83 118.08 324.62C121.313 328.887 125.614 332.226 130.55 334.3C136.55 336.72 143.26 337.3 149.62 338.15C163.13 339.98 177.8 341.39 191.38 342.45C204.96 343.51 218.76 344.17 232.47 344.37C246.18 344.57 259.9 344.37 273.6 343.71C275.27 343.63 276.94 343.53 278.6 343.38C278.61 343.373 278.619 343.363 278.625 343.352C278.63 343.34 278.633 343.328 278.633 343.315C278.633 343.302 278.63 343.29 278.625 343.278C278.619 343.267 278.61 343.257 278.6 343.25Z" fill="#37474F"/>
<path d="M236.09 291.5C231.85 290.88 227.62 290.27 223.35 289.83C219.08 289.39 214.72 288.99 210.41 288.63C201.87 287.9 193.31 287.25 184.75 286.85C179.89 286.62 175.02 286.6 170.16 286.66C170.128 286.66 170.098 286.673 170.075 286.695C170.053 286.718 170.04 286.748 170.04 286.78C170.04 286.812 170.053 286.842 170.075 286.865C170.098 286.887 170.128 286.9 170.16 286.9C178.72 287.68 187.29 288.21 195.86 288.78C204.43 289.35 212.96 290.1 221.49 290.92C226.33 291.38 231.18 291.74 236.03 292.13C236.38 292.12 236.45 291.5 236.09 291.5Z" fill="#37474F"/>
<path d="M179.61 280.81C176.189 282.28 172.901 284.04 169.78 286.07C166.604 287.974 163.567 290.099 160.69 292.43C160.61 292.5 160.69 292.6 160.79 292.56C164.13 291.02 167.33 289.09 170.51 287.24C173.729 285.431 176.835 283.427 179.81 281.24C180.02 281.11 179.89 280.69 179.61 280.81Z" fill="#37474F"/>
<path d="M161.61 209.41C190.08 211.1 238.95 200.19 238.03 187.1C237.38 178.03 225.8 149.98 207.84 137.56C205.13 135.68 187.6 165.12 190.97 168.28C194.49 171.56 198.22 175.67 199.82 179.01C200.6 180.63 173.05 190.69 162.04 195.21C141.68 203.56 153.68 208.94 161.61 209.41Z" fill="#D3766A"/>
<path d="M211.08 140.06C211.08 140.06 192.2 124.74 178.85 122.06C173.27 120.94 149.11 121.45 149.03 127.29C148.96 132.58 169.65 129.78 169.65 129.78C169.65 129.78 148.53 130.78 149.65 137.15C150.77 143.52 173.65 137.26 173.65 137.26C173.65 137.26 151.97 138.75 154.13 145.16C155.76 150 176.87 145.5 176.87 145.5C176.87 145.5 158.25 146.91 159.71 151.96C161.33 157.54 181.07 154.61 181.07 154.61C183.79 164.01 188.07 168.04 193.88 169.8C195.3 170.21 211.08 140.06 211.08 140.06Z" fill="#D3766A"/>
<path d="M176.93 128.96C174.45 128.96 171.93 128.96 169.46 129.24C166.99 129.52 164.46 129.81 162.07 130.24C158.868 130.797 155.741 131.72 152.75 132.99C158.23 131.13 167.07 130.11 169.55 129.86C172.03 129.61 174.47 129.25 176.94 129L176.93 128.96Z" fill="#263238"/>
<path d="M177.98 137.87C174.81 138.04 171.65 138.1 168.49 138.4C165.33 138.7 162.38 139.28 159.26 139.81C159.02 139.81 159.12 139.96 159.36 139.93C162.5 139.53 165.43 139.4 168.57 139.04C171.71 138.68 174.85 138.2 177.99 137.95C178.04 137.95 178.03 137.87 177.98 137.87Z" fill="#263238"/>
<path d="M180.26 145.37C175.39 145.508 170.547 146.152 165.81 147.29C165.57 147.34 165.72 147.47 165.96 147.44C170.75 146.71 174.51 146.1 180.26 145.54C180.35 145.5 180.36 145.37 180.26 145.37Z" fill="#263238"/>
<path d="M188.75 211.56L175.75 188.93C175.75 188.93 159.54 195.5 151.37 201C146.79 204.1 147.63 208.07 152.49 209.19C169.52 213.13 188.75 211.56 188.75 211.56Z" fill="#455A64"/>
<path d="M172.54 192.39C175.717 198.778 179.297 204.957 183.26 210.89C183.26 210.89 183.42 210.89 183.4 210.81C180.75 205.6 174.75 195.61 172.75 192.28C172.75 192.21 172.51 192.32 172.54 192.39Z" fill="#263238"/>
<path d="M178.1 285.01L101.94 289.43C102.04 287.87 114.99 231.02 135.94 204.65C141.54 197.59 153.69 192.36 159.48 204.83C165.62 218 179.14 284.04 178.1 285.01Z" fill="#FFC727"/>
<path d="M156.49 260.73C154.452 260.072 152.266 260.023 150.2 260.59C149.339 260.787 148.496 261.054 147.68 261.39C147.041 260.119 146.666 258.733 146.576 257.313C146.487 255.894 146.685 254.471 147.16 253.13C147.771 251.547 148.711 250.112 149.918 248.919C151.124 247.726 152.57 246.803 154.16 246.21C154.938 245.931 155.737 245.717 156.55 245.57C156.69 245.57 156.65 245.31 156.55 245.32C154.656 245.497 152.829 246.115 151.216 247.123C149.603 248.132 148.248 249.504 147.26 251.13C146.295 252.725 145.751 254.539 145.679 256.402C145.607 258.265 146.01 260.116 146.85 261.78C146.044 262.171 145.28 262.643 144.57 263.19C142.528 264.759 141.111 267.003 140.57 269.52C137.919 269.993 135.53 271.415 133.85 273.52C132.432 275.267 131.372 277.276 130.732 279.433C130.092 281.59 129.884 283.852 130.12 286.09C130.18 286.65 130.27 287.2 130.38 287.75H130.76C130.352 284.257 130.945 280.719 132.47 277.55C134.03 274.36 136.7 271.34 140.34 270.64C140.247 271.618 140.294 272.605 140.48 273.57C140.814 275.541 141.86 277.32 143.42 278.57C144.93 279.69 147.03 279.84 148.21 278.17C148.673 277.445 148.933 276.608 148.963 275.748C148.993 274.888 148.792 274.036 148.38 273.28C147.493 271.685 146.035 270.485 144.3 269.92C143.364 269.589 142.372 269.439 141.38 269.48C141.703 268.017 142.36 266.648 143.3 265.48C144.348 264.227 145.646 263.205 147.11 262.48C148.8 265.48 152.06 268.1 155.61 267.82C156.426 267.832 157.222 267.57 157.873 267.078C158.523 266.585 158.99 265.889 159.2 265.1C159.309 264.172 159.1 263.235 158.608 262.442C158.116 261.648 157.369 261.045 156.49 260.73ZM147.8 274.86C148.08 276.17 147.62 278.05 146.11 278.33C144.23 278.67 142.64 276.55 141.97 275.06C141.34 273.646 141.102 272.088 141.28 270.55C144.05 270.43 147.2 272 147.8 274.86ZM156.4 266.8C153.21 267.52 149.96 265.05 148.32 262.53C148.22 262.37 148.14 262.2 148.04 262.04C149.606 261.389 151.276 261.027 152.97 260.97C154.88 260.91 157.16 261.26 158.16 263.11C158.366 263.458 158.484 263.851 158.502 264.254C158.52 264.658 158.439 265.06 158.265 265.425C158.091 265.79 157.83 266.106 157.505 266.346C157.179 266.586 156.8 266.742 156.4 266.8ZM161.01 208.67C159.349 210.527 157.301 211.999 155.01 212.98C152.01 214.24 148.29 214.73 145.33 212.98C145.987 212.352 146.552 211.635 147.01 210.85C147.977 209.29 148.333 207.427 148.01 205.62C147.64 203.91 146.27 202.53 144.44 202.98C143.676 203.206 142.987 203.632 142.444 204.214C141.9 204.796 141.523 205.513 141.35 206.29C140.993 207.937 141.279 209.658 142.15 211.1C142.601 211.898 143.198 212.603 143.91 213.18C142.801 214.017 141.509 214.579 140.14 214.82C138.653 215.051 137.134 214.969 135.68 214.58C135.974 213.28 136 211.934 135.756 210.623C135.512 209.313 135.003 208.067 134.26 206.96L133.74 207.68C134.838 209.526 135.259 211.697 134.93 213.82C134.93 214 134.86 214.16 134.83 214.33C133.356 213.842 131.98 213.093 130.77 212.12C130.65 212.31 130.52 212.5 130.41 212.7C131.04 213.196 131.709 213.64 132.41 214.03C133.123 214.435 133.873 214.769 134.65 215.03C134.324 216.306 133.743 217.502 132.942 218.547C132.141 219.592 131.137 220.464 129.99 221.11C128.455 221.944 126.737 222.384 124.99 222.39L124.71 222.95C126.079 223.021 127.45 222.852 128.76 222.45C130.402 221.927 131.883 220.994 133.064 219.739C134.245 218.485 135.087 216.95 135.51 215.28C136.311 215.497 137.132 215.634 137.96 215.69C140.327 215.82 142.664 215.112 144.56 213.69C146.698 214.971 149.23 215.427 151.68 214.97C155.465 214.323 158.881 212.309 161.28 209.31C161.14 209.07 161.07 208.87 161.01 208.67ZM142.75 205.56C143.35 204.48 144.81 203.45 146.04 204.17C147.56 205.07 147.37 207.52 146.94 208.96C146.515 210.329 145.736 211.561 144.68 212.53C142.63 210.93 141.39 207.92 142.75 205.56ZM133.63 246.99C133.85 246.72 134.07 246.44 134.26 246.16C136.8 242.4 136.56 237.72 135.72 233.45C135.47 232.2 135.18 230.95 134.84 229.72C134.79 229.51 134.49 229.61 134.53 229.81C135.28 233.89 136.28 238.08 135.17 242.19C134.786 243.665 134.106 245.047 133.17 246.25C132.529 245.29 131.664 244.5 130.651 243.948C129.637 243.396 128.504 243.098 127.35 243.08C126.476 243.093 125.625 243.36 124.901 243.848C124.176 244.336 123.61 245.025 123.27 245.83C122.988 246.598 123.017 247.447 123.352 248.194C123.686 248.941 124.299 249.528 125.06 249.83C127.91 251.11 130.98 249.74 133.06 247.63L133.15 247.78C134.017 249.341 134.457 251.104 134.426 252.889C134.394 254.675 133.892 256.421 132.97 257.95C132.1 259.324 130.84 260.408 129.35 261.062C127.861 261.716 126.211 261.91 124.61 261.62C124.39 261.57 124.18 261.5 123.96 261.43C124.598 259.84 124.704 258.085 124.26 256.43C124.075 255.612 123.679 254.856 123.113 254.237C122.546 253.618 121.829 253.157 121.03 252.9C120.637 252.771 120.213 252.766 119.817 252.888C119.421 253.01 119.073 253.252 118.82 253.58C118.39 254.345 118.248 255.239 118.42 256.1C118.665 257.874 119.525 259.506 120.85 260.71C121.368 261.181 121.946 261.581 122.57 261.9C122.198 262.573 121.699 263.168 121.1 263.65C120.399 264.147 119.584 264.457 118.73 264.552C117.876 264.646 117.012 264.522 116.22 264.19C113.721 263.235 111.61 261.476 110.22 259.19L110.01 259.84C111.033 261.539 112.424 262.988 114.08 264.08C114.895 264.689 115.829 265.121 116.821 265.346C117.813 265.572 118.842 265.587 119.84 265.39C120.62 265.163 121.345 264.78 121.973 264.264C122.6 263.749 123.116 263.111 123.49 262.39C124.782 262.829 126.161 262.952 127.511 262.75C128.86 262.548 130.142 262.027 131.25 261.23C132.868 260.013 134.091 258.346 134.767 256.438C135.443 254.529 135.541 252.464 135.05 250.5C134.767 249.255 134.273 248.068 133.59 246.99H133.63ZM129.31 249.07C128.592 249.369 127.815 249.5 127.039 249.453C126.262 249.406 125.507 249.183 124.83 248.8C123.25 247.73 123.72 245.73 125.06 244.69C127.59 242.69 130.81 244.69 132.52 246.93C131.619 247.888 130.506 248.621 129.27 249.07H129.31ZM123.31 259.71C123.215 260.167 123.081 260.616 122.91 261.05C120.67 259.86 118.84 257.44 119.16 254.9C119.172 254.684 119.239 254.474 119.356 254.292C119.472 254.11 119.635 253.961 119.826 253.86C120.018 253.76 120.232 253.71 120.448 253.717C120.665 253.724 120.875 253.787 121.06 253.9C121.742 254.21 122.311 254.724 122.69 255.37C123.426 256.69 123.65 258.235 123.32 259.71H123.31ZM177.01 276.81C175.79 279.12 172.52 279.38 170.07 278.71C170.191 277.41 170.616 276.156 171.31 275.05C171.698 274.375 172.235 273.798 172.879 273.361C173.524 272.924 174.259 272.64 175.03 272.53C175.464 272.492 175.9 272.586 176.28 272.8C176.22 272.49 176.15 272.17 176.09 271.8C175.48 271.639 174.84 271.639 174.23 271.8C171.23 272.52 169.59 275.48 169.23 278.42L169.07 278.36C167.44 277.643 166.027 276.51 164.974 275.074C163.92 273.638 163.264 271.95 163.07 270.18C162.922 268.562 163.26 266.937 164.04 265.512C164.82 264.087 166.007 262.927 167.45 262.18C167.66 262.09 167.87 262.01 168.09 261.94C168.549 263.58 169.528 265.026 170.88 266.06C171.476 266.549 172.177 266.894 172.928 267.068C173.679 267.241 174.46 267.238 175.21 267.06C175.21 266.79 175.1 266.51 175.05 266.23H174.94C174.205 266.396 173.438 266.333 172.74 266.05C171.355 265.442 170.239 264.351 169.6 262.98C169.398 262.559 169.234 262.12 169.11 261.67C170.917 261.333 172.785 261.69 174.34 262.67C174.26 262.29 174.18 261.9 174.11 261.51C173.148 260.954 172.077 260.613 170.97 260.51C170.275 260.453 169.576 260.486 168.89 260.61C168.768 259.851 168.802 259.075 168.99 258.33C169.237 257.508 169.692 256.763 170.31 256.168C170.928 255.572 171.689 255.146 172.52 254.93L172.72 254.87C172.66 254.59 172.6 254.31 172.53 254.03C171.112 254.339 169.837 255.113 168.91 256.23C168.437 256.895 168.104 257.649 167.932 258.447C167.76 259.245 167.752 260.069 167.91 260.87C166.618 261.308 165.449 262.048 164.501 263.029C163.553 264.01 162.853 265.204 162.46 266.51C161.911 268.457 161.948 270.523 162.567 272.45C163.186 274.376 164.359 276.077 165.94 277.34C166.923 278.165 168.044 278.811 169.25 279.25C169.25 279.61 169.25 279.95 169.25 280.25C169.37 282.035 169.897 283.769 170.79 285.32L171.58 285.27C171.348 284.844 171.138 284.407 170.95 283.96C170.367 282.543 170.078 281.022 170.1 279.49C171.189 279.867 172.354 279.973 173.494 279.798C174.633 279.624 175.713 279.175 176.64 278.49C176.88 278.29 177.1 278.07 177.3 277.83C177.15 277.56 177.09 277.19 177.02 276.81H177.01ZM166.01 229.37C165.603 228.104 164.764 227.021 163.64 226.31C161.997 225.232 160.005 224.821 158.07 225.16C157.956 223.601 158.323 222.044 159.12 220.7C160.155 218.997 161.697 217.662 163.53 216.88L163.44 216.55C161.564 217.148 159.924 218.32 158.75 219.9C157.624 221.479 157.07 223.394 157.18 225.33C154.956 225.948 152.983 227.249 151.54 229.05C150.638 228.482 149.605 228.155 148.54 228.1C147.189 228.048 145.847 228.354 144.652 228.986C143.456 229.618 142.448 230.554 141.73 231.7C141.39 232.254 141.131 232.853 140.96 233.48C140.956 233.492 140.954 233.505 140.956 233.518C140.957 233.531 140.962 233.543 140.969 233.554C140.977 233.564 140.987 233.573 140.998 233.579C141.009 233.585 141.022 233.588 141.035 233.588C141.048 233.588 141.061 233.585 141.072 233.579C141.083 233.573 141.093 233.564 141.101 233.554C141.108 233.543 141.113 233.531 141.114 233.518C141.116 233.505 141.114 233.492 141.11 233.48C141.476 232.281 142.157 231.202 143.082 230.355C144.007 229.509 145.143 228.927 146.37 228.67C147.183 228.478 148.025 228.448 148.849 228.584C149.673 228.719 150.462 229.017 151.17 229.46C150.424 230.464 149.878 231.601 149.56 232.81C149.132 234.375 149.198 236.034 149.75 237.56C150.2 238.73 151.35 240.56 152.87 240.1C154.22 239.64 154.87 237.93 155.01 236.65C155.196 235.297 155.027 233.918 154.52 232.65C154.042 231.447 153.268 230.384 152.27 229.56C153.541 227.949 155.293 226.786 157.27 226.24C157.388 226.96 157.596 227.662 157.89 228.33C158.89 230.68 161.55 233.33 164.37 232.61C164.7 232.52 165.007 232.361 165.272 232.145C165.537 231.928 165.754 231.659 165.908 231.354C166.063 231.048 166.152 230.714 166.169 230.373C166.187 230.031 166.132 229.689 166.01 229.37ZM152.83 230.93C153.563 231.838 154.058 232.914 154.269 234.061C154.481 235.209 154.402 236.391 154.04 237.5C153.862 238.152 153.476 238.728 152.94 239.14C152.17 239.57 151.54 238.76 151.16 238.14C150.473 236.992 150.185 235.649 150.34 234.32C150.49 232.765 151.049 231.278 151.96 230.01C152.279 230.288 152.57 230.596 152.83 230.93ZM164.91 231.46C164.07 232.23 162.6 231.88 161.72 231.39C160.628 230.765 159.729 229.852 159.12 228.75C158.632 227.922 158.294 227.015 158.12 226.07C159.179 225.901 160.262 225.952 161.3 226.22C162.387 226.486 163.377 227.051 164.16 227.85C165.01 228.69 165.97 230.5 164.91 231.5V231.46ZM119.2 283.15C117.486 282.243 115.512 281.954 113.61 282.33C112.698 280.208 111.141 278.427 109.16 277.24C109.593 276.274 109.776 275.215 109.69 274.16C109.504 272.23 108.593 270.443 107.14 269.16C107.14 269.25 107.08 269.34 107.06 269.42C107.821 270.176 108.411 271.087 108.79 272.09C109.092 272.87 109.235 273.702 109.213 274.538C109.191 275.374 109.003 276.197 108.66 276.96C107.6 276.384 106.445 276.005 105.25 275.84C105.17 276.16 105.08 276.47 104.99 276.78C106.119 276.912 107.214 277.251 108.22 277.78C108.001 278.135 107.75 278.47 107.47 278.78C106.508 279.765 105.288 280.458 103.95 280.78C103.88 281.05 103.81 281.31 103.75 281.57C104.773 281.346 105.742 280.922 106.601 280.321C107.459 279.72 108.189 278.955 108.75 278.07C110.525 279.101 111.926 280.67 112.75 282.55C112.047 282.762 111.375 283.065 110.75 283.45C108.91 284.57 107.01 286.85 107.11 289.14L107.97 289.09C107.979 288.59 108.077 288.096 108.26 287.63C108.73 286.462 109.512 285.445 110.52 284.69C111.281 284.119 112.133 283.679 113.04 283.39C113.352 284.412 113.451 285.488 113.33 286.55C113.247 287.346 113.006 288.118 112.62 288.82L113.62 288.77C114.425 287.007 114.546 285.008 113.96 283.16C115.493 282.84 117.086 282.994 118.53 283.6C120.626 284.51 122.326 286.142 123.32 288.2H123.62C122.798 286.043 121.23 284.251 119.2 283.15Z" fill="#455A64"/>
<path d="M156.55 212.57C152.47 214.35 143.95 209.17 140.1 204.41C139.84 204.08 139.69 200.16 139.3 195.41C139.05 192.52 138.7 189.31 138.17 186.41C138.06 185.82 157.17 187.52 157.17 187.52C156.793 191.337 156.884 195.185 157.44 198.98C157.521 199.38 157.638 199.772 157.79 200.15C157.79 200.15 157.79 200.27 157.85 200.34C158.64 202.5 160.5 210.84 156.55 212.57Z" fill="#D3766A"/>
<path d="M139.3 186.28C141.04 191.04 146.3 202.34 156.01 200.79C156.634 200.691 157.249 200.544 157.85 200.35C157.839 200.281 157.819 200.214 157.79 200.15C157.646 199.773 157.532 199.385 157.45 198.99C156.894 195.189 156.803 191.333 157.18 187.51C157.18 187.51 143.39 186.29 139.3 186.28Z" fill="#263238"/>
<path d="M130.49 166.28C130.14 173.13 138.1 190.68 143.65 193.65C151.65 197.95 162.59 195.83 165.65 186.65C168.65 177.78 157.85 155.09 151.86 152.65C143.06 149.04 131.01 156.16 130.49 166.28Z" fill="#D3766A"/>
<path d="M151.3 173.01C151.3 173.01 151.24 173.11 151.3 173.16C151.92 174.31 152.42 175.72 151.56 176.63C151.56 176.63 151.56 176.71 151.56 176.69C152.75 175.87 152.07 174 151.3 173.01Z" fill="#263238"/>
<path d="M149.66 172.31C147.72 173.09 149.43 176.92 151.23 176.2C153.03 175.48 151.29 171.66 149.66 172.31Z" fill="#263238"/>
<path d="M157.95 170.09C157.95 170.04 158.07 170.09 158.09 170.15C158.58 171.35 159.35 172.65 160.59 172.56C160.59 172.56 160.66 172.62 160.59 172.63C159.22 173.03 158.23 171.31 157.95 170.09Z" fill="#263238"/>
<path d="M158.46 168.38C160.3 167.38 162.16 171.14 160.46 172.06C158.76 172.98 156.91 169.21 158.46 168.38Z" fill="#263238"/>
<path d="M147.21 170.5C147.654 170.133 148.075 169.739 148.47 169.32C148.967 168.967 149.336 168.462 149.52 167.88C149.541 167.685 149.497 167.489 149.396 167.321C149.295 167.153 149.142 167.023 148.96 166.95C148.577 166.866 148.179 166.885 147.806 167.007C147.433 167.128 147.1 167.347 146.84 167.64C146.226 168.143 145.82 168.855 145.7 169.64C145.677 169.825 145.708 170.012 145.792 170.179C145.875 170.345 146.006 170.483 146.167 170.575C146.329 170.667 146.514 170.709 146.7 170.696C146.886 170.682 147.063 170.614 147.21 170.5Z" fill="#263238"/>
<path d="M159.39 165.67C158.841 165.837 158.284 165.974 157.72 166.08C157.154 166.307 156.528 166.342 155.94 166.18C155.763 166.088 155.621 165.94 155.536 165.76C155.451 165.579 155.428 165.375 155.47 165.18C155.606 164.813 155.838 164.489 156.143 164.243C156.447 163.996 156.812 163.836 157.2 163.78C157.964 163.54 158.79 163.59 159.52 163.92C159.671 164.018 159.792 164.154 159.872 164.315C159.952 164.475 159.987 164.655 159.974 164.834C159.961 165.013 159.899 165.185 159.797 165.332C159.694 165.479 159.553 165.596 159.39 165.67Z" fill="#263238"/>
<path d="M153.66 184.67C153.99 184.96 154.33 185.35 154.8 185.36C155.282 185.321 155.749 185.178 156.17 184.94C156.17 184.94 156.26 184.94 156.23 185C156.063 185.267 155.828 185.484 155.548 185.629C155.268 185.773 154.954 185.839 154.64 185.82C154.371 185.767 154.123 185.637 153.928 185.445C153.732 185.253 153.598 185.008 153.54 184.74C153.52 184.67 153.61 184.63 153.66 184.67Z" fill="#263238"/>
<path d="M153.9 180.81C154.412 181.143 154.987 181.367 155.589 181.468C156.191 181.57 156.807 181.546 157.4 181.4C157.917 181.275 158.415 181.08 158.88 180.82C158.97 180.773 159.057 180.719 159.14 180.66C159.22 180.66 159.3 180.57 159.38 180.51C159.439 180.468 159.482 180.409 159.504 180.34C159.525 180.272 159.524 180.198 159.5 180.13C159.483 180.087 159.459 180.046 159.43 180.01L159.38 179.91C159 178.98 158.29 177.64 158.29 177.64C158.7 177.64 160.74 177.64 160.5 177.2C158.564 173.132 156.219 169.272 153.5 165.68C153.42 165.56 153.23 165.68 153.3 165.81C155.07 169.58 157.5 173.01 159.3 176.76C158.568 176.751 157.838 176.842 157.13 177.03C157.02 177.13 158.55 179.62 158.69 180.03C158.694 180.046 158.694 180.064 158.69 180.08C157.975 180.488 157.185 180.749 156.368 180.847C155.55 180.945 154.721 180.878 153.93 180.65C153.85 180.62 153.75 180.74 153.9 180.81Z" fill="#263238"/>
<path d="M157.87 181.16C157.559 181.942 157.053 182.63 156.4 183.16C156.03 183.431 155.588 183.584 155.13 183.6C154.13 183.6 153.87 182.77 153.83 182C153.816 181.584 153.849 181.168 153.93 180.76C155.168 181.307 156.547 181.447 157.87 181.16Z" fill="#263238"/>
<path d="M156.4 183.16C156.03 183.431 155.588 183.584 155.13 183.6C154.13 183.6 153.87 182.77 153.83 182C154.326 181.873 154.851 181.919 155.318 182.13C155.785 182.341 156.167 182.704 156.4 183.16Z" fill="#FF9BBC"/>
<path d="M133.04 180.85C137.98 179.98 139.04 173.56 136.77 169.18C136.77 169.18 150.1 167.67 148.13 157.18C149.391 158.359 150.923 159.208 152.59 159.653C154.258 160.098 156.01 160.124 157.69 159.73L160.08 163.19C161.31 162.48 161.78 158.36 157.8 156.19C157.8 156.19 156.29 151.08 151.7 148.93C150.45 148.297 149.044 148.039 147.651 148.188C146.257 148.337 144.937 148.886 143.85 149.77C141.198 148.694 138.232 148.694 135.58 149.77C134.207 150.358 132.994 151.266 132.043 152.417C131.091 153.569 130.429 154.931 130.11 156.39C130.11 156.39 124.02 159.21 124.06 164.03C124.046 165.396 124.321 166.749 124.865 168.002C125.41 169.254 126.212 170.378 127.22 171.3C127.22 171.3 126.06 173.49 127.85 177.16C128.99 179.55 131.56 181.12 133.04 180.85Z" fill="#263238"/>
<path d="M147.61 156.3C147.921 157.118 148.145 157.966 148.28 158.83C148.431 159.674 148.478 160.534 148.42 161.39C148.322 163.087 147.586 164.684 146.36 165.86C145.082 166.994 143.554 167.81 141.9 168.24C141.06 168.43 140.22 168.67 139.36 168.81C138.5 168.95 137.64 169.04 136.77 169.18C137.64 169.18 138.52 169.13 139.4 169.11C140.28 169.09 141.15 168.83 142.02 168.7C143.785 168.31 145.425 167.485 146.79 166.3C148.101 165.006 148.855 163.252 148.89 161.41C148.9 159.626 148.459 157.869 147.61 156.3Z" fill="#263238"/>
<path d="M155.75 160.63C154.215 160.501 152.711 160.119 151.3 159.5C150.617 159.185 149.978 158.782 149.4 158.3C148.813 157.796 148.283 157.229 147.82 156.61C148.095 157.355 148.521 158.036 149.07 158.61C149.637 159.21 150.316 159.693 151.07 160.03C151.809 160.365 152.595 160.584 153.4 160.68C154.181 160.79 154.974 160.773 155.75 160.63Z" fill="#263238"/>
<path d="M140.8 155.14C141.1 156.93 138.4 158.87 134.8 159.48C131.2 160.09 127.98 159.12 127.68 157.34C127.38 155.56 130.08 153.6 133.68 153C137.28 152.4 140.51 153.35 140.8 155.14Z" fill="#FFC727"/>
<path d="M139.3 155.02C139.52 156.38 137.47 157.85 134.71 158.31C131.95 158.77 129.52 158.04 129.3 156.68C129.08 155.32 131.12 153.85 133.89 153.39C136.66 152.93 139.07 153.66 139.3 155.02Z" fill="#263238"/>
<path d="M139.03 153.65L137.93 153.37C138.63 150.56 141.65 149.89 143.15 149.93V151.07C142.98 151.07 139.69 151.02 139.03 153.65Z" fill="#FFC727"/>
<path d="M131.81 180.37C131.75 180.19 130.29 176.05 130.05 175.21C129.81 174.37 131.42 158.87 131.45 158.78L131.99 158.98L132.55 159.07C132.42 159.94 131.01 173.94 131.16 174.93C131.38 175.7 132.87 179.93 132.89 179.99L131.81 180.37Z" fill="#FFC727"/>
<path d="M154.21 147.56C154.51 149.35 151.81 151.29 148.21 151.89C144.61 152.49 141.39 151.54 141.1 149.75C140.81 147.96 143.5 146.02 147.1 145.42C150.7 144.82 153.91 145.77 154.21 147.56Z" fill="#FFC727"/>
<path d="M152.69 147.5C152.92 148.86 150.87 150.33 148.1 150.79C145.33 151.25 142.92 150.52 142.69 149.17C142.46 147.82 144.52 146.33 147.28 145.87C150.04 145.41 152.47 146.18 152.69 147.5Z" fill="#263238"/>
<path d="M138.17 180.29C138.17 180.29 132.42 175.49 130.17 177.7C127.92 179.91 133.33 187.63 136.8 187.95C137.242 188.022 137.694 188.003 138.129 187.896C138.563 187.788 138.971 187.593 139.329 187.323C139.686 187.052 139.984 186.713 140.206 186.324C140.428 185.935 140.569 185.505 140.62 185.06L138.17 180.29Z" fill="#D3766A"/>
<path d="M131.75 179.88C131.7 179.88 131.75 179.96 131.75 179.96C134.2 180.26 135.92 181.96 137.31 183.9C137.123 183.713 136.897 183.569 136.649 183.477C136.401 183.386 136.135 183.35 135.872 183.372C135.608 183.394 135.352 183.473 135.122 183.604C134.892 183.735 134.694 183.915 134.54 184.13C134.49 184.19 134.54 184.26 134.63 184.23C134.982 183.996 135.399 183.88 135.821 183.898C136.243 183.916 136.649 184.067 136.98 184.33C137.537 184.765 138.046 185.258 138.5 185.8C138.66 185.97 138.98 185.8 138.85 185.56C138.12 182.69 134.86 179.34 131.75 179.88Z" fill="#263238"/>
<path d="M134.28 206.33C108.52 233.15 70.95 301.07 66.28 310.81C63.13 317.42 97.69 334.81 99.16 330.04C101.04 323.88 131.16 247.88 139.16 219.2C143.58 203.38 139.61 200.79 134.28 206.33Z" fill="#D3766A"/>
<path d="M100.81 325.5C99.61 328.79 95.51 342.78 92.64 344.5C89.77 346.22 74.7 345.87 67.11 345.87C59.52 345.87 58.03 343.75 58.11 341.14C58.19 338.53 74.17 338.03 74.17 338.03C74.17 338.03 52.89 344.12 47.54 345.12C42.19 346.12 29.86 349.23 28.07 344.79C27.27 342.79 30.65 340.79 30.65 340.79C30.65 340.79 25.47 342.3 24.65 339.73C23.71 336.8 27.82 335.19 27.82 335.19C27.82 335.19 24.59 335.84 24.52 333.46C24.35 328.13 44.59 325.51 44.59 325.51C44.59 325.51 29.09 333.05 28.59 328.7C27.91 322.7 59.66 316.07 62.96 313.45C65.1219 311.622 66.9199 309.404 68.26 306.91L100.81 325.5Z" fill="#D3766A"/>
<path d="M58.26 342.5C58.2148 342.133 58.2575 341.76 58.3844 341.412C58.5113 341.065 58.7188 340.752 58.99 340.5C59.5336 339.997 60.1593 339.591 60.84 339.3C62.2436 338.697 63.6998 338.225 65.19 337.89C68.19 337.13 71.19 336.59 74.3 335.8C71.141 335.753 67.9889 336.109 64.92 336.86C63.3614 337.198 61.8571 337.749 60.45 338.5C59.7243 338.901 59.088 339.445 58.58 340.1C58.3242 340.439 58.1604 340.837 58.1043 341.258C58.0482 341.678 58.1019 342.106 58.26 342.5Z" fill="#263238"/>
<path d="M30.69 340.78C32.87 340.25 35.03 339.63 37.19 339.01C39.35 338.39 41.48 337.73 43.62 337.08L50.03 335.08C52.17 334.413 54.3133 333.747 56.46 333.08C54.2224 333.327 52.004 333.724 49.82 334.27C47.62 334.77 45.46 335.4 43.31 336.05C41.16 336.7 39.03 337.43 36.93 338.22C34.83 339.01 32.75 339.83 30.69 340.78Z" fill="#263238"/>
<path d="M51.33 327.78C49.2653 327.912 47.2131 328.196 45.19 328.63C41.1292 329.443 37.1668 330.686 33.37 332.34C31.4709 333.16 29.63 334.109 27.86 335.18C29.86 334.51 31.73 333.76 33.67 333.11C35.61 332.46 37.55 331.79 39.5 331.19C41.45 330.59 43.42 330 45.38 329.42C47.34 328.84 49.33 328.32 51.33 327.78Z" fill="#263238"/>
<path d="M48.2 322.7C44.8676 322.959 41.5832 323.651 38.43 324.76C35.2508 325.81 32.2245 327.276 29.43 329.12C32.57 328 35.63 326.81 38.76 325.77C41.89 324.73 45.02 323.72 48.2 322.7Z" fill="#263238"/>
<path d="M110.45 231.75L136.33 235.31C136.33 235.31 141.09 218.51 141.73 208.67C142.09 203.15 138.45 201.38 134.57 204.53C121.03 215.56 110.45 231.75 110.45 231.75Z" fill="#455A64"/>
<path d="M135.56 230.67C128.565 229.263 121.487 228.304 114.37 227.8C114.37 227.8 114.31 227.95 114.37 227.96C120.1 229.07 131.66 230.46 135.54 230.9C135.59 230.91 135.63 230.68 135.56 230.67Z" fill="#263238"/>
<path d="M133.75 234.95C134.64 234.95 135.52 235.05 136.41 235.12L136.19 235.26L137.1 231.4L138.1 227.56C138.76 225 139.43 222.45 140.1 219.89C139.848 222.532 139.403 225.152 138.77 227.73C138.163 230.312 137.425 232.862 136.56 235.37L136.5 235.54H136.34C135.43 235.34 134.56 235.16 133.75 234.95Z" fill="#263238"/>
<path d="M138.75 226.26C138.902 225.596 139.137 224.955 139.45 224.35C139.742 223.74 140.094 223.161 140.5 222.62C140.471 222.962 140.397 223.298 140.28 223.62C140.173 223.942 140.043 224.257 139.89 224.56C139.599 225.182 139.215 225.755 138.75 226.26Z" fill="#263238"/>
<path d="M194.8 311.62C194.8 311.62 201.8 347.83 204.28 355.62C206.76 363.41 209.8 365.68 218.83 365.68H295.75C301.22 365.68 303.82 359.96 306.31 350.54C308.8 341.12 315.1 311.85 315.1 311.85L194.8 311.62Z" fill="#FFC727"/>
<path opacity="0.5" d="M194.8 311.62C194.8 311.62 201.8 347.83 204.28 355.62C206.76 363.41 209.8 365.68 218.83 365.68H295.75C301.22 365.68 303.82 359.96 306.31 350.54C308.8 341.12 315.1 311.85 315.1 311.85L194.8 311.62Z" fill="black"/>
<g opacity="0.1">
<path d="M256.91 359.71C254.1 359.55 251.28 359.51 248.46 359.47H246.64C246.645 359.417 246.645 359.363 246.64 359.31C246.64 359.07 246.64 358.84 246.64 358.6C246.64 358.11 246.64 357.6 246.64 357.14C246.64 356.68 246.64 356.14 246.56 355.67C246.549 355.512 246.529 355.355 246.5 355.2H247.39H250.57C251.608 355.223 252.646 355.187 253.68 355.09C253.85 355.09 253.79 354.83 253.68 354.81C252.743 354.712 251.802 354.668 250.86 354.68L248.04 354.62H242.47H239.86C239.839 354.582 239.822 354.542 239.81 354.5C239.89 354.173 239.924 353.836 239.91 353.5C239.91 353.09 239.91 352.68 239.91 352.27C239.897 351.494 239.843 350.72 239.75 349.95H240.9C243.37 349.95 245.84 349.95 248.31 349.95C249.7 349.95 251.09 349.95 252.47 349.82C252.58 349.82 252.58 349.66 252.47 349.66C247.54 349.36 242.59 349.4 237.66 349.45C236.27 349.45 234.88 349.53 233.49 349.62C233.49 349.62 233.43 349.71 233.49 349.71C235.49 349.86 237.49 349.92 239.49 349.95C239.49 350.02 239.49 350.1 239.49 350.17C239.423 350.937 239.373 351.707 239.34 352.48C239.34 352.92 239.34 353.37 239.29 353.81C239.27 354.026 239.27 354.244 239.29 354.46L239.35 354.59C236.68 354.59 234.02 354.59 231.35 354.59C229.27 354.59 227.19 354.73 225.11 354.68C225.03 354.68 225.03 354.78 225.11 354.79C226.957 354.987 228.813 355.084 230.67 355.08H231.67C231.665 355.153 231.665 355.227 231.67 355.3C231.67 355.52 231.67 355.74 231.61 355.95C231.61 356.37 231.61 356.79 231.61 357.21C231.61 357.63 231.61 358.04 231.61 358.46C231.61 358.68 231.61 358.89 231.61 359.11C231.601 359.196 231.601 359.284 231.61 359.37C228.783 359.37 225.957 359.37 223.13 359.37L219.13 359.45C219.164 359.188 219.164 358.922 219.13 358.66C219.13 358.27 219.13 357.89 219.13 357.51C219.13 356.75 218.99 356 218.9 355.25H218.83C218.83 356.01 218.77 356.77 218.73 357.53L218.67 358.64C218.635 358.909 218.635 359.181 218.67 359.45H218.33C216.73 359.45 215.14 359.57 213.54 359.61V359.7C214.97 359.7 216.4 359.79 217.83 359.82L221.99 359.89C224.81 359.94 227.63 359.95 230.44 359.97L247.35 360.06C250.54 360.06 253.73 360.13 256.91 360.06C256.944 360.045 256.974 360.021 256.994 359.99C257.015 359.959 257.026 359.922 257.026 359.885C257.026 359.848 257.015 359.811 256.994 359.78C256.974 359.749 256.944 359.725 256.91 359.71ZM240.01 359.39H232.09C232.1 359.307 232.1 359.223 232.09 359.14C232.09 358.93 232.09 358.71 232.09 358.49C232.09 358.07 232.04 357.66 232.02 357.24C232 356.82 232.02 356.4 231.95 355.98C231.95 355.76 231.95 355.54 231.9 355.33C231.85 355.12 231.9 355.18 231.9 355.11L236.32 355.17C239.653 355.17 242.963 355.187 246.25 355.22C246.25 355.34 246.25 355.45 246.25 355.48C246.25 355.68 246.25 355.88 246.25 356.09C246.25 356.54 246.25 356.99 246.25 357.45C246.25 357.91 246.25 358.32 246.25 358.76C246.25 358.97 246.25 359.23 246.25 359.48L240.01 359.39Z" fill="black"/>
<path d="M298.51 346.55C296.87 346.48 295.23 346.49 293.59 346.55C293.639 346.316 293.639 346.074 293.59 345.84C293.59 345.45 293.59 345.06 293.53 344.67C293.47 344.28 293.46 343.89 293.4 343.51C293.381 343.325 293.351 343.141 293.31 342.96C293.308 342.827 293.273 342.697 293.21 342.58C293.68 342.58 294.16 342.58 294.63 342.53C294.72 342.53 294.71 342.41 294.63 342.4C291.77 342.19 288.89 342.08 286.03 342.06C283.17 342.04 280.35 341.99 277.51 342.06C275.9 342.06 274.28 342.06 272.68 342.19C272.62 342.19 272.61 342.29 272.68 342.3C274.07 342.46 275.48 342.47 276.87 342.52C277.87 342.52 278.87 342.58 279.87 342.6C279.87 343.3 279.87 344 279.87 344.7C279.87 345.4 279.87 346.1 279.87 346.79C279.15 346.79 278.43 346.86 277.71 346.87V346.94C279.06 346.94 280.4 347.1 281.71 347.12H285.71H286.45C286.435 347.229 286.435 347.341 286.45 347.45C286.45 347.62 286.45 347.8 286.45 347.98C286.45 348.34 286.45 348.71 286.45 349.07C286.45 349.43 286.45 349.77 286.52 350.13C286.52 350.3 286.52 350.48 286.57 350.65V350.83H284.31C283.46 350.83 282.62 350.92 281.77 350.95V351.03C282.63 351.09 283.47 351.17 284.33 351.19H286.81C288.481 351.203 290.151 351.106 291.81 350.9C291.834 350.9 291.857 350.891 291.874 350.874C291.89 350.857 291.9 350.834 291.9 350.81C291.9 350.786 291.89 350.763 291.874 350.746C291.857 350.729 291.834 350.72 291.81 350.72C290.19 350.65 288.57 350.72 286.95 350.78C286.96 350.704 286.96 350.626 286.95 350.55C286.95 350.38 286.95 350.2 286.95 350.02C286.95 349.67 286.9 349.32 286.86 348.97C286.82 348.62 286.78 348.27 286.73 347.92C286.73 347.76 286.73 347.6 286.66 347.44C286.647 347.316 286.616 347.195 286.57 347.08C288.99 347.08 291.42 347.08 293.84 346.97C295.37 346.92 296.89 346.87 298.42 346.73C298.441 346.731 298.462 346.726 298.481 346.715C298.499 346.704 298.514 346.688 298.524 346.669C298.533 346.65 298.537 346.629 298.535 346.608C298.532 346.586 298.524 346.566 298.51 346.55ZM293.12 343.01V343.56C293.12 343.95 293.12 344.34 293.12 344.73C293.12 345.12 293.12 345.51 293.12 345.9C293.101 346.106 293.125 346.314 293.19 346.51H290.37C287.66 346.51 284.95 346.59 282.24 346.63C281.58 346.63 280.92 346.63 280.24 346.69C280.29 345.991 280.29 345.289 280.24 344.59C280.24 343.9 280.13 343.2 280.02 342.51H281.15C284 342.57 286.87 342.65 289.73 342.59L293.11 342.5C293.066 342.668 293.07 342.844 293.12 343.01Z" fill="black"/>
</g>
<path opacity="0.1" d="M315.09 311.89C315.09 311.89 314.09 316.79 312.63 323.23L196.23 318.87C195.36 314.52 194.8 311.61 194.8 311.61L315.09 311.89Z" fill="black"/>
<path d="M191.05 303.94C188.69 304.11 188.87 314.61 191.05 314.94C192.16 315.13 317.99 315.71 318.89 315.39C320.7 314.74 321.42 306.06 319.28 305.1C318.15 304.66 192.18 303.86 191.05 303.94Z" fill="#FFC727"/>
<path opacity="0.5" d="M191.05 303.94C188.69 304.11 188.87 314.61 191.05 314.94C192.16 315.13 317.99 315.71 318.89 315.39C320.7 314.74 321.42 306.06 319.28 305.1C318.15 304.66 192.18 303.86 191.05 303.94Z" fill="black"/>
<path d="M223.896 304.474L179.923 343.57L185.87 350.259L229.843 311.163L223.896 304.474Z" fill="#FFC727"/>
<path opacity="0.3" d="M223.896 304.474L179.923 343.57L185.87 350.259L229.843 311.163L223.896 304.474Z" fill="black"/>
<path d="M281.698 311.848L325.828 350.683L331.735 343.97L287.605 305.136L281.698 311.848Z" fill="#FFC727"/>
<path opacity="0.3" d="M281.698 311.848L325.828 350.683L331.735 343.97L287.605 305.136L281.698 311.848Z" fill="black"/>
<path d="M214.79 304.03L295.1 304.7L254.94 329.32L214.79 304.03Z" fill="#FFC727"/>
<path d="M184.92 332.91V361.5C184.92 362.38 184.09 365.28 182.57 365.28H162.75C161.24 365.28 160.41 362.38 160.41 361.5V332.91C160.41 331.36 162.75 328.49 162.75 328.49H182.62C182.62 328.49 183.79 330.49 184.68 332.1C184.824 332.347 184.907 332.625 184.92 332.91Z" fill="#FFC727"/>
<path d="M182.57 365.26H162.7V367.82H182.57V365.26Z" fill="#C7C7C7"/>
<path d="M182.57 325.94H162.7V328.5H182.57V325.94Z" fill="#C7C7C7"/>
<path d="M184.92 337.5V358.3C177.38 359.56 167.36 359.19 160.36 354.3V350.35C160.36 350.35 173.66 352.05 184.92 337.5Z" fill="white"/>
<path d="M184.92 332.91V336.66C179.02 341.66 169.56 347.98 160.36 346.86V346.2C160.36 346.2 173.46 344.97 184.63 332.1C184.792 332.342 184.891 332.62 184.92 332.91Z" fill="white"/>
</svg>
